<?xml version="1.0" encoding="utf-8" standalone="no"?>
<!DOCTYPE svg PUBLIC "-//W3C//DTD SVG 1.1//EN"
  "http://www.w3.org/Graphics/SVG/1.1/DTD/svg11.dtd">
<svg xmlns:xlink="http://www.w3.org/1999/xlink" width="662.754375pt" height="509.568125pt" viewBox="0 0 662.754375 509.568125" xmlns="http://www.w3.org/2000/svg" version="1.1">
 <metadata>
  <rdf:RDF xmlns:dc="http://purl.org/dc/elements/1.1/" xmlns:cc="http://creativecommons.org/ns#" xmlns:rdf="http://www.w3.org/1999/02/22-rdf-syntax-ns#">
   <cc:Work>
    <dc:type rdf:resource="http://purl.org/dc/dcmitype/StillImage"/>
    <dc:date>2025-12-19T10:48:26.500806</dc:date>
    <dc:format>image/svg+xml</dc:format>
    <dc:creator>
     <cc:Agent>
      <dc:title>Matplotlib v3.10.0, https://matplotlib.org/</dc:title>
     </cc:Agent>
    </dc:creator>
   </cc:Work>
  </rdf:RDF>
 </metadata>
 <defs>
  <style type="text/css">*{stroke-linejoin: round; stroke-linecap: butt}</style>
 </defs>
 <g id="figure_1">
  <g id="patch_1">
   <path d="M 0 509.568125 
L 662.754375 509.568125 
L 662.754375 0 
L 0 0 
z
" style="fill: #ffffff"/>
  </g>
  <g id="axes_1">
   <g id="patch_2">
    <path d="M 97.554375 302.88 
L 511.352128 302.88 
L 511.352128 7.2 
L 97.554375 7.2 
z
" style="fill: #ffffff"/>
   </g>
   <g id="matplotlib.axis_1">
    <g id="xtick_1">
     <g id="line2d_1">
      <defs>
       <path id="mb3299d9319" d="M 0 0 
L 0 3.5 
" style="stroke: #000000; stroke-width: 0.8"/>
      </defs>
      <g>
       <use xlink:href="#mb3299d9319" x="116.363364" y="302.88" style="stroke: #000000; stroke-width: 0.8"/>
      </g>
     </g>
    </g>
    <g id="xtick_2">
     <g id="line2d_2">
      <g>
       <use xlink:href="#mb3299d9319" x="197.127347" y="302.88" style="stroke: #000000; stroke-width: 0.8"/>
      </g>
     </g>
    </g>
    <g id="xtick_3">
     <g id="line2d_3">
      <g>
       <use xlink:href="#mb3299d9319" x="277.891331" y="302.88" style="stroke: #000000; stroke-width: 0.8"/>
      </g>
     </g>
    </g>
    <g id="xtick_4">
     <g id="line2d_4">
      <g>
       <use xlink:href="#mb3299d9319" x="358.655315" y="302.88" style="stroke: #000000; stroke-width: 0.8"/>
      </g>
     </g>
    </g>
    <g id="xtick_5">
     <g id="line2d_5">
      <g>
       <use xlink:href="#mb3299d9319" x="439.419298" y="302.88" style="stroke: #000000; stroke-width: 0.8"/>
      </g>
     </g>
    </g>
   </g>
   <g id="matplotlib.axis_2">
    <g id="ytick_1">
     <g id="line2d_6">
      <defs>
       <path id="m279db0ff96" d="M 0 0 
L -3.5 0 
" style="stroke: #000000; stroke-width: 0.8"/>
      </defs>
      <g>
       <use xlink:href="#m279db0ff96" x="97.554375" y="223.819126" style="stroke: #000000; stroke-width: 0.8"/>
      </g>
     </g>
     <g id="text_1">
      <!-- −200 -->
      <g transform="translate(35.62 231.417563) scale(0.2 -0.2)">
       <defs>
        <path id="DejaVuSans-2212" d="M 678 2272 
L 4684 2272 
L 4684 1741 
L 678 1741 
L 678 2272 
z
" transform="scale(0.015625)"/>
        <path id="DejaVuSans-32" d="M 1228 531 
L 3431 531 
L 3431 0 
L 469 0 
L 469 531 
Q 828 903 1448 1529 
Q 2069 2156 2228 2338 
Q 2531 2678 2651 2914 
Q 2772 3150 2772 3378 
Q 2772 3750 2511 3984 
Q 2250 4219 1831 4219 
Q 1534 4219 1204 4116 
Q 875 4013 500 3803 
L 500 4441 
Q 881 4594 1212 4672 
Q 1544 4750 1819 4750 
Q 2544 4750 2975 4387 
Q 3406 4025 3406 3419 
Q 3406 3131 3298 2873 
Q 3191 2616 2906 2266 
Q 2828 2175 2409 1742 
Q 1991 1309 1228 531 
z
" transform="scale(0.015625)"/>
        <path id="DejaVuSans-30" d="M 2034 4250 
Q 1547 4250 1301 3770 
Q 1056 3291 1056 2328 
Q 1056 1369 1301 889 
Q 1547 409 2034 409 
Q 2525 409 2770 889 
Q 3016 1369 3016 2328 
Q 3016 3291 2770 3770 
Q 2525 4250 2034 4250 
z
M 2034 4750 
Q 2819 4750 3233 4129 
Q 3647 3509 3647 2328 
Q 3647 1150 3233 529 
Q 2819 -91 2034 -91 
Q 1250 -91 836 529 
Q 422 1150 422 2328 
Q 422 3509 836 4129 
Q 1250 4750 2034 4750 
z
" transform="scale(0.015625)"/>
       </defs>
       <use xlink:href="#DejaVuSans-2212"/>
       <use xlink:href="#DejaVuSans-32" transform="translate(83.789062 0)"/>
       <use xlink:href="#DejaVuSans-30" transform="translate(147.412109 0)"/>
       <use xlink:href="#DejaVuSans-30" transform="translate(211.035156 0)"/>
      </g>
     </g>
    </g>
    <g id="ytick_2">
     <g id="line2d_7">
      <g>
       <use xlink:href="#m279db0ff96" x="97.554375" y="144.753212" style="stroke: #000000; stroke-width: 0.8"/>
      </g>
     </g>
     <g id="text_2">
      <!-- 0 -->
      <g transform="translate(77.829375 152.351649) scale(0.2 -0.2)">
       <use xlink:href="#DejaVuSans-30"/>
      </g>
     </g>
    </g>
    <g id="ytick_3">
     <g id="line2d_8">
      <g>
       <use xlink:href="#m279db0ff96" x="97.554375" y="65.687298" style="stroke: #000000; stroke-width: 0.8"/>
      </g>
     </g>
     <g id="text_3">
      <!-- 200 -->
      <g transform="translate(52.379375 73.285735) scale(0.2 -0.2)">
       <use xlink:href="#DejaVuSans-32"/>
       <use xlink:href="#DejaVuSans-30" transform="translate(63.623047 0)"/>
       <use xlink:href="#DejaVuSans-30" transform="translate(127.246094 0)"/>
      </g>
     </g>
    </g>
    <g id="text_4">
     <!-- RVs ($\frac{m}{s}$) -->
     <g transform="translate(25.46 196.95) rotate(-90) scale(0.22 -0.22)">
      <defs>
       <path id="DejaVuSans-52" d="M 2841 2188 
Q 3044 2119 3236 1894 
Q 3428 1669 3622 1275 
L 4263 0 
L 3584 0 
L 2988 1197 
Q 2756 1666 2539 1819 
Q 2322 1972 1947 1972 
L 1259 1972 
L 1259 0 
L 628 0 
L 628 4666 
L 2053 4666 
Q 2853 4666 3247 4331 
Q 3641 3997 3641 3322 
Q 3641 2881 3436 2590 
Q 3231 2300 2841 2188 
z
M 1259 4147 
L 1259 2491 
L 2053 2491 
Q 2509 2491 2742 2702 
Q 2975 2913 2975 3322 
Q 2975 3731 2742 3939 
Q 2509 4147 2053 4147 
L 1259 4147 
z
" transform="scale(0.015625)"/>
       <path id="DejaVuSans-56" d="M 1831 0 
L 50 4666 
L 709 4666 
L 2188 738 
L 3669 4666 
L 4325 4666 
L 2547 0 
L 1831 0 
z
" transform="scale(0.015625)"/>
       <path id="DejaVuSans-73" d="M 2834 3397 
L 2834 2853 
Q 2591 2978 2328 3040 
Q 2066 3103 1784 3103 
Q 1356 3103 1142 2972 
Q 928 2841 928 2578 
Q 928 2378 1081 2264 
Q 1234 2150 1697 2047 
L 1894 2003 
Q 2506 1872 2764 1633 
Q 3022 1394 3022 966 
Q 3022 478 2636 193 
Q 2250 -91 1575 -91 
Q 1294 -91 989 -36 
Q 684 19 347 128 
L 347 722 
Q 666 556 975 473 
Q 1284 391 1588 391 
Q 1994 391 2212 530 
Q 2431 669 2431 922 
Q 2431 1156 2273 1281 
Q 2116 1406 1581 1522 
L 1381 1569 
Q 847 1681 609 1914 
Q 372 2147 372 2553 
Q 372 3047 722 3315 
Q 1072 3584 1716 3584 
Q 2034 3584 2315 3537 
Q 2597 3491 2834 3397 
z
" transform="scale(0.015625)"/>
       <path id="DejaVuSans-20" transform="scale(0.015625)"/>
       <path id="DejaVuSans-28" d="M 1984 4856 
Q 1566 4138 1362 3434 
Q 1159 2731 1159 2009 
Q 1159 1288 1364 580 
Q 1569 -128 1984 -844 
L 1484 -844 
Q 1016 -109 783 600 
Q 550 1309 550 2009 
Q 550 2706 781 3412 
Q 1013 4119 1484 4856 
L 1984 4856 
z
" transform="scale(0.015625)"/>
       <path id="DejaVuSans-Oblique-6d" d="M 5747 2113 
L 5338 0 
L 4763 0 
L 5166 2094 
Q 5191 2228 5203 2325 
Q 5216 2422 5216 2491 
Q 5216 2772 5059 2928 
Q 4903 3084 4622 3084 
Q 4203 3084 3875 2770 
Q 3547 2456 3450 1953 
L 3066 0 
L 2491 0 
L 2900 2094 
Q 2925 2209 2937 2307 
Q 2950 2406 2950 2484 
Q 2950 2769 2794 2926 
Q 2638 3084 2363 3084 
Q 1938 3084 1609 2770 
Q 1281 2456 1184 1953 
L 800 0 
L 225 0 
L 909 3500 
L 1484 3500 
L 1375 2956 
Q 1609 3263 1923 3423 
Q 2238 3584 2597 3584 
Q 2978 3584 3223 3384 
Q 3469 3184 3519 2828 
Q 3781 3197 4126 3390 
Q 4472 3584 4856 3584 
Q 5306 3584 5551 3325 
Q 5797 3066 5797 2591 
Q 5797 2488 5784 2364 
Q 5772 2241 5747 2113 
z
" transform="scale(0.015625)"/>
       <path id="DejaVuSans-Oblique-73" d="M 3200 3397 
L 3091 2853 
Q 2863 2978 2609 3040 
Q 2356 3103 2088 3103 
Q 1634 3103 1373 2948 
Q 1113 2794 1113 2528 
Q 1113 2219 1719 2053 
Q 1766 2041 1788 2034 
L 1972 1978 
Q 2547 1819 2739 1644 
Q 2931 1469 2931 1166 
Q 2931 609 2489 259 
Q 2047 -91 1331 -91 
Q 1053 -91 747 -37 
Q 441 16 72 128 
L 184 722 
Q 500 559 806 475 
Q 1113 391 1394 391 
Q 1816 391 2080 572 
Q 2344 753 2344 1031 
Q 2344 1331 1650 1516 
L 1591 1531 
L 1394 1581 
Q 956 1697 753 1886 
Q 550 2075 550 2369 
Q 550 2928 970 3256 
Q 1391 3584 2113 3584 
Q 2397 3584 2667 3537 
Q 2938 3491 3200 3397 
z
" transform="scale(0.015625)"/>
       <path id="DejaVuSans-29" d="M 513 4856 
L 1013 4856 
Q 1481 4119 1714 3412 
Q 1947 2706 1947 2009 
Q 1947 1309 1714 600 
Q 1481 -109 1013 -844 
L 513 -844 
Q 928 -128 1133 580 
Q 1338 1288 1338 2009 
Q 1338 2731 1133 3434 
Q 928 4138 513 4856 
z
" transform="scale(0.015625)"/>
      </defs>
      <use xlink:href="#DejaVuSans-52" transform="translate(0 0.003125)"/>
      <use xlink:href="#DejaVuSans-56" transform="translate(69.482422 0.003125)"/>
      <use xlink:href="#DejaVuSans-73" transform="translate(137.890625 0.003125)"/>
      <use xlink:href="#DejaVuSans-20" transform="translate(189.990234 0.003125)"/>
      <use xlink:href="#DejaVuSans-28" transform="translate(221.777344 0.003125)"/>
      <use xlink:href="#DejaVuSans-Oblique-6d" transform="translate(260.791016 43.8) scale(0.7)"/>
      <use xlink:href="#DejaVuSans-Oblique-73" transform="translate(276.791016 -26.65) scale(0.7)"/>
      <use xlink:href="#DejaVuSans-29" transform="translate(341.479492 0.003125)"/>
      <path d="M 260.791016 18.8 
L 260.791016 25.05 
L 328.979492 25.05 
L 328.979492 18.8 
L 260.791016 18.8 
z
"/>
     </g>
    </g>
   </g>
   <g id="line2d_9">
    <path d="M 97.554375 144.753212 
L 511.352128 144.753212 
" clip-path="url(#p9166a85dc6)" style="fill: none; stroke: #808080; stroke-width: 2; stroke-linecap: square"/>
   </g>
   <g id="LineCollection_1">
    <path d="M 116.363364 138.167704 
L 116.363364 116.365141 
" clip-path="url(#p9166a85dc6)" style="fill: none; stroke: #1f77b4; stroke-opacity: 0.4; stroke-width: 1.2"/>
    <path d="M 156.700323 257.670599 
L 156.700323 238.611773 
" clip-path="url(#p9166a85dc6)" style="fill: none; stroke: #1f77b4; stroke-opacity: 0.4; stroke-width: 1.2"/>
    <path d="M 160.733308 251.463807 
L 160.733308 221.472503 
" clip-path="url(#p9166a85dc6)" style="fill: none; stroke: #1f77b4; stroke-opacity: 0.4; stroke-width: 1.2"/>
    <path d="M 172.835454 132.560778 
L 172.835454 103.478852 
" clip-path="url(#p9166a85dc6)" style="fill: none; stroke: #1f77b4; stroke-opacity: 0.4; stroke-width: 1.2"/>
    <path d="M 182.341656 124.860278 
L 182.341656 96.954905 
" clip-path="url(#p9166a85dc6)" style="fill: none; stroke: #1f77b4; stroke-opacity: 0.4; stroke-width: 1.2"/>
    <path d="M 187.356768 84.408538 
L 187.356768 64.998742 
" clip-path="url(#p9166a85dc6)" style="fill: none; stroke: #1f77b4; stroke-opacity: 0.4; stroke-width: 1.2"/>
    <path d="M 188.898428 100.218776 
L 188.898428 71.879922 
" clip-path="url(#p9166a85dc6)" style="fill: none; stroke: #1f77b4; stroke-opacity: 0.4; stroke-width: 1.2"/>
    <path d="M 195.254628 92.542649 
L 195.254628 69.002616 
" clip-path="url(#p9166a85dc6)" style="fill: none; stroke: #1f77b4; stroke-opacity: 0.4; stroke-width: 1.2"/>
    <path d="M 204.224156 108.82664 
L 204.224156 75.961458 
" clip-path="url(#p9166a85dc6)" style="fill: none; stroke: #1f77b4; stroke-opacity: 0.4; stroke-width: 1.2"/>
    <path d="M 229.164395 92.020286 
L 229.164395 66.464785 
" clip-path="url(#p9166a85dc6)" style="fill: none; stroke: #1f77b4; stroke-opacity: 0.4; stroke-width: 1.2"/>
    <path d="M 243.775012 119.163415 
L 243.775012 93.917323 
" clip-path="url(#p9166a85dc6)" style="fill: none; stroke: #1f77b4; stroke-opacity: 0.4; stroke-width: 1.2"/>
    <path d="M 415.10113 280.256504 
L 415.10113 258.123993 
" clip-path="url(#p9166a85dc6)" style="fill: none; stroke: #1f77b4; stroke-opacity: 0.4; stroke-width: 1.2"/>
    <path d="M 434.544891 265.655375 
L 434.544891 242.103835 
" clip-path="url(#p9166a85dc6)" style="fill: none; stroke: #1f77b4; stroke-opacity: 0.4; stroke-width: 1.2"/>
    <path d="M 453.122095 123.329063 
L 453.122095 104.442475 
" clip-path="url(#p9166a85dc6)" style="fill: none; stroke: #1f77b4; stroke-opacity: 0.4; stroke-width: 1.2"/>
    <path d="M 463.584743 56.449611 
L 463.584743 36.561715 
" clip-path="url(#p9166a85dc6)" style="fill: none; stroke: #1f77b4; stroke-opacity: 0.4; stroke-width: 1.2"/>
    <path d="M 468.436484 76.505511 
L 468.436484 45.582491 
" clip-path="url(#p9166a85dc6)" style="fill: none; stroke: #1f77b4; stroke-opacity: 0.4; stroke-width: 1.2"/>
    <path d="M 474.853289 46.260961 
L 474.853289 27.861139 
" clip-path="url(#p9166a85dc6)" style="fill: none; stroke: #1f77b4; stroke-opacity: 0.4; stroke-width: 1.2"/>
    <path d="M 482.036377 101.211498 
L 482.036377 86.583849 
" clip-path="url(#p9166a85dc6)" style="fill: none; stroke: #1f77b4; stroke-opacity: 0.4; stroke-width: 1.2"/>
    <path d="M 486.055927 57.979043 
L 486.055927 33.318588 
" clip-path="url(#p9166a85dc6)" style="fill: none; stroke: #1f77b4; stroke-opacity: 0.4; stroke-width: 1.2"/>
    <path d="M 492.543139 85.662571 
L 492.543139 43.023473 
" clip-path="url(#p9166a85dc6)" style="fill: none; stroke: #1f77b4; stroke-opacity: 0.4; stroke-width: 1.2"/>
   </g>
   <g id="LineCollection_2">
    <path d="M 116.363364 138.130642 
L 116.363364 116.402203 
" clip-path="url(#p9166a85dc6)" style="fill: none; stroke: #1f77b4; stroke-opacity: 0.8; stroke-width: 1.2"/>
    <path d="M 156.700323 257.628179 
L 156.700323 238.654193 
" clip-path="url(#p9166a85dc6)" style="fill: none; stroke: #1f77b4; stroke-opacity: 0.8; stroke-width: 1.2"/>
    <path d="M 160.733308 251.436886 
L 160.733308 221.499424 
" clip-path="url(#p9166a85dc6)" style="fill: none; stroke: #1f77b4; stroke-opacity: 0.8; stroke-width: 1.2"/>
    <path d="M 172.835454 132.533014 
L 172.835454 103.506616 
" clip-path="url(#p9166a85dc6)" style="fill: none; stroke: #1f77b4; stroke-opacity: 0.8; stroke-width: 1.2"/>
    <path d="M 182.341656 124.831341 
L 182.341656 96.983842 
" clip-path="url(#p9166a85dc6)" style="fill: none; stroke: #1f77b4; stroke-opacity: 0.8; stroke-width: 1.2"/>
    <path d="M 187.356768 84.366889 
L 187.356768 65.040391 
" clip-path="url(#p9166a85dc6)" style="fill: none; stroke: #1f77b4; stroke-opacity: 0.8; stroke-width: 1.2"/>
    <path d="M 188.898428 100.190282 
L 188.898428 71.908415 
" clip-path="url(#p9166a85dc6)" style="fill: none; stroke: #1f77b4; stroke-opacity: 0.8; stroke-width: 1.2"/>
    <path d="M 195.254628 92.508331 
L 195.254628 69.036934 
" clip-path="url(#p9166a85dc6)" style="fill: none; stroke: #1f77b4; stroke-opacity: 0.8; stroke-width: 1.2"/>
    <path d="M 204.224156 108.802077 
L 204.224156 75.986021 
" clip-path="url(#p9166a85dc6)" style="fill: none; stroke: #1f77b4; stroke-opacity: 0.8; stroke-width: 1.2"/>
    <path d="M 229.164395 91.988681 
L 229.164395 66.496389 
" clip-path="url(#p9166a85dc6)" style="fill: none; stroke: #1f77b4; stroke-opacity: 0.8; stroke-width: 1.2"/>
    <path d="M 243.775012 119.131422 
L 243.775012 93.949315 
" clip-path="url(#p9166a85dc6)" style="fill: none; stroke: #1f77b4; stroke-opacity: 0.8; stroke-width: 1.2"/>
    <path d="M 415.10113 280.219997 
L 415.10113 258.1605 
" clip-path="url(#p9166a85dc6)" style="fill: none; stroke: #1f77b4; stroke-opacity: 0.8; stroke-width: 1.2"/>
    <path d="M 434.544891 265.621074 
L 434.544891 242.138136 
" clip-path="url(#p9166a85dc6)" style="fill: none; stroke: #1f77b4; stroke-opacity: 0.8; stroke-width: 1.2"/>
    <path d="M 453.122095 123.286255 
L 453.122095 104.485283 
" clip-path="url(#p9166a85dc6)" style="fill: none; stroke: #1f77b4; stroke-opacity: 0.8; stroke-width: 1.2"/>
    <path d="M 463.584743 56.408968 
L 463.584743 36.602359 
" clip-path="url(#p9166a85dc6)" style="fill: none; stroke: #1f77b4; stroke-opacity: 0.8; stroke-width: 1.2"/>
    <path d="M 468.436484 76.479403 
L 468.436484 45.608599 
" clip-path="url(#p9166a85dc6)" style="fill: none; stroke: #1f77b4; stroke-opacity: 0.8; stroke-width: 1.2"/>
    <path d="M 474.853289 46.217015 
L 474.853289 27.905085 
" clip-path="url(#p9166a85dc6)" style="fill: none; stroke: #1f77b4; stroke-opacity: 0.8; stroke-width: 1.2"/>
    <path d="M 482.036377 101.156141 
L 482.036377 86.639205 
" clip-path="url(#p9166a85dc6)" style="fill: none; stroke: #1f77b4; stroke-opacity: 0.8; stroke-width: 1.2"/>
    <path d="M 486.055927 57.946289 
L 486.055927 33.351343 
" clip-path="url(#p9166a85dc6)" style="fill: none; stroke: #1f77b4; stroke-opacity: 0.8; stroke-width: 1.2"/>
    <path d="M 492.543139 85.643644 
L 492.543139 43.0424 
" clip-path="url(#p9166a85dc6)" style="fill: none; stroke: #1f77b4; stroke-opacity: 0.8; stroke-width: 1.2"/>
   </g>
   <g id="line2d_10">
    <path d="M 116.363364 137.505984 
L 116.589117 138.110448 
L 116.890121 139.615175 
L 117.341627 143.3548 
L 117.868384 149.835869 
L 118.620894 162.403462 
L 119.900161 188.629749 
L 121.104177 211.616524 
L 121.781436 220.935113 
L 122.308193 225.608432 
L 122.684448 227.43257 
L 122.985452 227.972317 
L 123.135954 227.941709 
L 123.361707 227.533132 
L 123.662711 226.346784 
L 124.114217 223.339283 
L 124.716225 217.533588 
L 127.049007 192.91669 
L 127.500513 190.883854 
L 127.801517 190.409369 
L 127.952019 190.454356 
L 128.177772 190.885005 
L 128.478776 192.14564 
L 128.855031 194.817692 
L 129.381788 200.503925 
L 130.059047 210.690094 
L 131.112561 230.631144 
L 132.617581 258.567981 
L 133.29484 267.398275 
L 133.821597 271.702455 
L 134.197852 273.247428 
L 134.423605 273.547844 
L 134.574107 273.489089 
L 134.79986 273.020499 
L 135.100864 271.713191 
L 135.55237 268.414416 
L 136.154378 261.967319 
L 137.207892 247.579316 
L 138.336657 233.140682 
L 138.938665 227.961095 
L 139.390171 225.789863 
L 139.691175 225.259437 
L 139.841677 225.280444 
L 140.06743 225.673446 
L 140.368434 226.868238 
L 140.744689 229.406334 
L 141.271447 234.745586 
L 141.948706 244.086177 
L 144.657742 284.583029 
L 145.184499 288.23944 
L 145.485503 289.238466 
L 145.711256 289.44 
L 145.861758 289.310236 
L 146.087511 288.720245 
L 146.388515 287.208348 
L 146.840021 283.467348 
L 147.442029 276.078648 
L 148.26979 262.76179 
L 150.151065 231.707184 
L 150.753073 225.159813 
L 151.204579 222.067765 
L 151.580834 220.790375 
L 151.806587 220.601702 
L 151.957089 220.714536 
L 152.182842 221.23403 
L 152.483846 222.554654 
L 152.935352 225.765673 
L 153.53736 231.927756 
L 154.666125 246.508035 
L 155.644389 258.100746 
L 156.246397 262.843506 
L 156.622652 264.45075 
L 156.848405 264.844103 
L 156.998907 264.855829 
L 157.149409 264.662377 
L 157.375162 263.982268 
L 157.676166 262.345065 
L 158.127672 258.358809 
L 158.654429 251.56492 
L 159.406939 238.640938 
L 162.266477 185.731522 
L 162.868485 179.959963 
L 163.319991 177.65927 
L 163.620995 177.105055 
L 163.771497 177.115042 
L 163.99725 177.475966 
L 164.298254 178.568677 
L 164.74976 181.378106 
L 165.351768 186.838876 
L 167.609298 209.453775 
L 168.060804 211.397304 
L 168.286557 211.77607 
L 168.437059 211.791546 
L 168.587561 211.610893 
L 168.813314 210.9636 
L 169.114318 209.387371 
L 169.565824 205.503999 
L 170.092582 198.798789 
L 170.845092 185.835386 
L 172.19961 157.345608 
L 173.328375 135.575125 
L 174.005634 126.097782 
L 174.532391 121.28209 
L 174.908646 119.330046 
L 175.20965 118.668002 
L 175.360152 118.63055 
L 175.510654 118.783051 
L 175.736407 119.354891 
L 176.112662 121.158726 
L 176.639419 125.210209 
L 177.391929 133.100653 
L 178.896949 149.241435 
L 179.423706 152.762978 
L 179.799961 154.087947 
L 180.025714 154.339879 
L 180.176216 154.268252 
L 180.401969 153.790745 
L 180.702973 152.451514 
L 181.079228 149.650529 
L 181.605985 143.722882 
L 182.283244 133.137872 
L 183.336758 112.499341 
L 184.766528 84.920351 
L 185.519038 74.517903 
L 186.045795 69.896067 
L 186.42205 68.084594 
L 186.723054 67.545509 
L 186.873556 67.575135 
L 187.099309 67.983049 
L 187.400313 69.17547 
L 187.851819 72.226257 
L 188.453827 78.207296 
L 189.582592 92.453209 
L 190.560855 103.719986 
L 191.162863 108.270569 
L 191.539118 109.778898 
L 191.764871 110.126228 
L 191.915373 110.114422 
L 192.141126 109.723892 
L 192.44213 108.501773 
L 192.818385 105.862575 
L 193.345142 100.222985 
L 194.022401 90.179994 
L 195.226417 68.065762 
L 196.430433 47.420028 
L 197.107692 39.294428 
L 197.634449 35.491808 
L 198.010704 34.265898 
L 198.236457 34.138857 
L 198.386959 34.305491 
L 198.612713 34.924633 
L 198.913717 36.413229 
L 199.365223 39.95063 
L 199.967231 46.684688 
L 201.020745 61.63598 
L 202.14951 76.913583 
L 202.751518 82.603586 
L 203.203024 85.143206 
L 203.504028 85.897252 
L 203.65453 85.978712 
L 203.805032 85.860117 
L 204.030785 85.306357 
L 204.331789 83.874639 
L 204.783295 80.308698 
L 205.385303 73.223795 
L 206.213064 60.390899 
L 208.019088 31.483341 
L 208.621096 25.079248 
L 209.072602 22.116942 
L 209.373606 21.115532 
L 209.599359 20.893964 
L 209.749861 20.999985 
L 209.975614 21.536941 
L 210.276618 22.942753 
L 210.728124 26.444219 
L 211.330132 33.366052 
L 212.233144 47.039214 
L 213.888667 72.488199 
L 214.490675 78.689384 
L 214.942181 81.529456 
L 215.243185 82.460371 
L 215.468938 82.634649 
L 215.61944 82.500049 
L 215.845193 81.925473 
L 216.146197 80.481962 
L 216.597703 76.962399 
L 217.199711 70.128538 
L 218.177974 55.801004 
L 219.457241 37.411149 
L 220.1345 30.746523 
L 220.586006 28.196144 
L 220.88701 27.453227 
L 221.037512 27.381508 
L 221.188014 27.51224 
L 221.413767 28.088381 
L 221.714771 29.557841 
L 222.166277 33.201404 
L 222.768285 40.452195 
L 223.596046 53.719074 
L 225.703074 88.992221 
L 226.305082 95.268667 
L 226.756588 98.054383 
L 227.057592 98.922697 
L 227.283346 99.046924 
L 227.433848 98.881085 
L 227.659601 98.267614 
L 228.035856 96.318468 
L 228.487362 92.605349 
L 229.164621 84.857452 
L 231.422151 56.720037 
L 231.948908 53.40205 
L 232.249912 52.494544 
L 232.475665 52.323467 
L 232.626167 52.459012 
L 232.85192 53.041226 
L 233.152924 54.524154 
L 233.60443 58.222115 
L 234.131187 64.592173 
L 234.883697 76.776517 
L 237.667984 125.678622 
L 238.194741 130.600162 
L 238.646247 132.921252 
L 238.947251 133.463899 
L 239.097753 133.436945 
L 239.323506 133.033928 
L 239.62451 131.850375 
L 240.076016 128.823634 
L 240.678024 122.919543 
L 242.107794 105.502293 
L 242.860304 97.998164 
L 243.387061 94.716783 
L 243.763316 93.657385 
L 243.989069 93.589451 
L 244.214822 93.965758 
L 244.515826 95.170833 
L 244.892081 97.804227 
L 245.418838 103.502635 
L 246.096097 113.836365 
L 247.07436 132.78832 
L 248.729882 165.134258 
L 249.482392 175.456838 
L 250.009149 179.985048 
L 250.385404 181.719865 
L 250.686408 182.199519 
L 250.83691 182.143289 
L 251.062663 181.702437 
L 251.363667 180.485683 
L 251.815173 177.46284 
L 252.417181 171.700171 
L 254.59946 148.915745 
L 255.050966 146.694293 
L 255.35197 146.076856 
L 255.502472 146.048293 
L 255.652974 146.213065 
L 255.878728 146.829722 
L 256.179732 148.349249 
L 256.631238 152.107267 
L 257.157995 158.602707 
L 257.910505 171.174598 
L 259.189772 197.355644 
L 260.393788 220.234726 
L 261.071047 229.466954 
L 261.597804 234.062286 
L 261.974059 235.825863 
L 262.275063 236.314712 
L 262.425565 236.257945 
L 262.651318 235.809347 
L 262.952322 234.568365 
L 263.403828 231.476716 
L 264.005836 225.555834 
L 266.338617 200.469199 
L 266.790123 198.33861 
L 267.091127 197.79676 
L 267.241629 197.807293 
L 267.467382 198.185186 
L 267.768386 199.37327 
L 268.144641 201.950643 
L 268.671398 207.495819 
L 269.348657 217.483913 
L 270.402172 237.074328 
L 271.831941 263.270293 
L 272.5092 272.169345 
L 273.035957 276.572209 
L 273.412212 278.196424 
L 273.637965 278.54308 
L 273.788467 278.513248 
L 274.01422 278.083578 
L 274.315224 276.816541 
L 274.691479 274.195187 
L 275.218236 268.862278 
L 276.045997 257.799179 
L 277.626268 236.14859 
L 278.228276 230.658302 
L 278.679782 228.252499 
L 278.980786 227.564549 
L 279.131288 227.506364 
L 279.28179 227.640642 
L 279.507543 228.202243 
L 279.808547 229.612568 
L 280.260053 233.074247 
L 280.862061 239.889568 
L 281.765073 253.370453 
L 283.420595 278.535345 
L 284.022603 284.614625 
L 284.47411 287.317973 
L 284.775114 288.122791 
L 284.925616 288.21272 
L 285.076118 288.091595 
L 285.301871 287.513881 
L 285.602875 286.013708 
L 286.054381 282.270242 
L 286.656389 274.817141 
L 287.48415 261.250154 
L 289.440676 227.788653 
L 290.117935 220.260205 
L 290.569441 217.219041 
L 290.945696 215.99643 
L 291.171449 215.841347 
L 291.321951 215.975488 
L 291.547704 216.523687 
L 291.848708 217.873203 
L 292.300214 221.097899 
L 292.902222 227.201348 
L 294.331991 245.072185 
L 295.084501 252.892769 
L 295.611258 256.406323 
L 295.987513 257.617189 
L 296.213266 257.764302 
L 296.363768 257.609795 
L 296.589521 256.991166 
L 296.890525 255.438237 
L 297.342031 251.572759 
L 297.868788 244.891201 
L 298.621298 232.030586 
L 300.352072 196.543103 
L 301.255084 180.982298 
L 301.932343 172.937315 
L 302.383849 169.6857 
L 302.760104 168.330448 
L 302.985857 168.102222 
L 303.136359 168.186709 
L 303.362112 168.654917 
L 303.663116 169.879122 
L 304.114622 172.851894 
L 304.791881 179.239672 
L 306.748407 199.135926 
L 307.199913 201.530986 
L 307.500917 202.288805 
L 307.72667 202.369556 
L 307.952423 202.010412 
L 308.253427 200.826617 
L 308.629682 198.203106 
L 309.081188 193.422044 
L 309.683196 184.54389 
L 310.586208 167.237886 
L 312.693236 125.069223 
L 313.370496 116.070229 
L 313.897253 111.678373 
L 314.273508 110.039382 
L 314.499261 109.655629 
L 314.649763 109.644127 
L 314.875516 109.981707 
L 315.17652 111.060292 
L 315.552775 113.323921 
L 316.079532 117.899282 
L 317.057795 128.90312 
L 318.111309 140.219953 
L 318.713317 144.478359 
L 319.089572 145.865011 
L 319.315325 146.154115 
L 319.465827 146.10741 
L 319.69158 145.667584 
L 319.992584 144.379353 
L 320.368839 141.64376 
L 320.895596 135.811778 
L 321.572855 125.358935 
L 322.626369 104.951319 
L 324.056138 77.737822 
L 324.808648 67.547788 
L 325.335405 63.080048 
L 325.71166 61.380284 
L 325.937413 60.968027 
L 326.087915 60.943753 
L 326.238417 61.116258 
L 326.46417 61.733708 
L 326.840425 63.665344 
L 327.291932 67.305108 
L 327.969191 74.822776 
L 330.15147 100.826077 
L 330.602976 103.649325 
L 330.979231 104.789629 
L 331.204984 104.89921 
L 331.355486 104.724689 
L 331.581239 104.087302 
L 331.882243 102.538377 
L 332.333749 98.765645 
L 332.935757 91.302321 
L 333.763518 77.663907 
L 335.870546 41.372504 
L 336.472554 34.83795 
L 336.92406 31.867822 
L 337.225064 30.883152 
L 337.450817 30.677346 
L 337.601319 30.792635 
L 337.827072 31.337982 
L 338.128076 32.737201 
L 338.579582 36.168609 
L 339.18159 42.83366 
L 340.159853 56.786882 
L 341.43912 74.640539 
L 342.041129 80.482181 
L 342.492635 83.132398 
L 342.793639 83.959218 
L 343.019392 84.060755 
L 343.169894 83.877997 
L 343.395647 83.228724 
L 343.696651 81.674891 
L 344.148157 77.948617 
L 344.750165 70.719929 
L 345.653177 56.614272 
L 347.233448 31.687645 
L 347.910707 24.51945 
L 348.362213 21.698109 
L 348.663217 20.791188 
L 348.88897 20.64054 
L 349.039472 20.793793 
L 349.265225 21.401429 
L 349.566229 22.900969 
L 350.017735 26.541338 
L 350.619743 33.643844 
L 351.522755 47.574972 
L 353.178277 73.449728 
L 353.780285 79.792478 
L 354.231791 82.735737 
L 354.532795 83.734584 
L 354.758548 83.95959 
L 354.90905 83.858783 
L 355.134803 83.334961 
L 355.435807 81.959461 
L 355.887313 78.543276 
L 356.489322 71.851259 
L 357.467585 57.767832 
L 358.746852 39.72565 
L 359.34886 33.816689 
L 359.800366 31.124005 
L 360.10137 30.273085 
L 360.327123 30.156809 
L 360.477625 30.332037 
L 360.703378 30.974816 
L 361.004382 32.53272 
L 361.455888 36.307476 
L 362.057896 43.728986 
L 362.885657 57.219658 
L 364.992685 92.992642 
L 365.594693 99.395898 
L 366.046199 102.274056 
L 366.347203 103.203313 
L 366.572956 103.37312 
L 366.723458 103.237686 
L 366.949211 102.669952 
L 367.250215 101.260666 
L 367.701721 97.875383 
L 368.303729 91.441022 
L 369.582996 74.41309 
L 370.486009 63.949012 
L 371.012766 59.913541 
L 371.389021 58.298253 
L 371.690025 57.855799 
L 371.840527 57.930922 
L 372.06628 58.421243 
L 372.367284 59.782447 
L 372.743539 62.601191 
L 373.270296 68.501369 
L 373.947555 78.915588 
L 375.07632 100.459424 
L 376.430838 125.243959 
L 377.108097 134.049654 
L 377.634854 138.390846 
L 378.011109 140.007763 
L 378.236862 140.374262 
L 378.387364 140.370433 
L 378.613117 140.002095 
L 378.914121 138.864966 
L 379.290376 136.496335 
L 379.817133 131.714219 
L 380.720145 121.116916 
L 381.924161 107.486803 
L 382.526169 103.099749 
L 382.902424 101.662763 
L 383.128177 101.349907 
L 383.278679 101.382359 
L 383.504432 101.802104 
L 383.805436 103.064433 
L 384.181691 105.767866 
L 384.708449 111.560353 
L 385.385708 122.005896 
L 386.363971 141.096079 
L 388.019493 173.603763 
L 388.772003 183.971859 
L 389.29876 188.523919 
L 389.675015 190.272715 
L 389.976019 190.76218 
L 390.126521 190.710501 
L 390.352274 190.276142 
L 390.653278 189.067597 
L 391.104784 186.056626 
L 391.706792 180.310018 
L 393.889071 157.592657 
L 394.340577 155.384364 
L 394.641581 154.774611 
L 394.792083 154.749446 
L 394.942585 154.917264 
L 395.168338 155.537741 
L 395.469342 157.060738 
L 395.920848 160.819802 
L 396.447605 167.308842 
L 397.200115 179.854377 
L 398.554633 207.496555 
L 399.683399 228.652584 
L 400.360658 237.766794 
L 400.887415 242.258997 
L 401.26367 243.943793 
L 401.489423 244.337383 
L 401.639925 244.34659 
L 401.865678 243.991046 
L 402.166682 242.859901 
L 402.542937 240.484015 
L 403.069694 235.670661 
L 403.972706 224.979335 
L 405.176722 211.147137 
L 405.77873 206.606135 
L 406.154985 205.044911 
L 406.455989 204.604759 
L 406.606491 204.668505 
L 406.832244 205.127287 
L 407.133248 206.421656 
L 407.509503 209.121771 
L 408.03626 214.801666 
L 408.713519 224.862259 
L 409.842284 245.699262 
L 411.121551 268.361361 
L 411.79881 276.927308 
L 412.325567 281.0596 
L 412.701822 282.485516 
L 412.927575 282.711528 
L 413.078077 282.600674 
L 413.303831 282.0487 
L 413.604835 280.617399 
L 414.056341 277.096387 
L 414.658349 270.265859 
L 415.636612 256.06376 
L 416.915879 238.127554 
L 417.517887 232.309023 
L 417.969393 229.656641 
L 418.270397 228.803728 
L 418.49615 228.66442 
L 418.646652 228.811889 
L 418.872405 229.391558 
L 419.173409 230.819306 
L 419.624915 234.282541 
L 420.226923 241.029824 
L 421.129935 254.199065 
L 422.634955 276.287269 
L 423.236963 282.301276 
L 423.688469 285.003331 
L 423.989473 285.821749 
L 424.215226 285.891862 
L 424.440979 285.487818 
L 424.741983 284.213063 
L 425.118238 281.469046 
L 425.644995 275.649442 
L 426.322254 265.396061 
L 427.676773 240.377096 
L 428.730287 222.871146 
L 429.407546 215.017188 
L 429.859052 211.767172 
L 430.235307 210.374826 
L 430.46106 210.119562 
L 430.611562 210.187545 
L 430.837315 210.637371 
L 431.138319 211.857187 
L 431.589825 214.890026 
L 432.191833 220.741728 
L 433.4711 236.260545 
L 434.298861 244.927025 
L 434.825618 248.509567 
L 435.201873 249.808641 
L 435.427626 250.020143 
L 435.578128 249.912078 
L 435.803881 249.366803 
L 436.104885 247.915155 
L 436.48114 244.943424 
L 437.007897 238.733081 
L 437.685156 227.736044 
L 438.813921 204.806876 
L 440.24369 176.616351 
L 440.9962 166.090593 
L 441.522957 161.397729 
L 441.899213 159.517283 
L 442.200217 158.900268 
L 442.350719 158.880667 
L 442.576472 159.199253 
L 442.877476 160.238931 
L 443.253731 162.43053 
L 443.855739 167.59239 
L 445.059755 180.773976 
L 445.887516 188.650087 
L 446.414273 191.824961 
L 446.790528 192.874662 
L 447.016281 192.95209 
L 447.242034 192.590582 
L 447.543038 191.405335 
L 447.919293 188.783159 
L 448.370799 184.009078 
L 448.972807 175.15088 
L 449.875819 157.901136 
L 451.982847 115.99456 
L 452.660106 107.113406 
L 453.186863 102.821061 
L 453.563118 101.256248 
L 453.788871 100.917918 
L 453.939373 100.936991 
L 454.165126 101.320771 
L 454.46613 102.461377 
L 454.917636 105.380484 
L 455.519644 111.059003 
L 457.927677 136.15909 
L 458.303932 137.829924 
L 458.604936 138.36387 
L 458.755438 138.345034 
L 458.981191 137.947228 
L 459.282195 136.715623 
L 459.65845 134.052211 
L 460.185207 128.324948 
L 460.862466 118.01517 
L 461.91598 97.853812 
L 463.345749 71.023678 
L 464.023008 61.860128 
L 464.549765 57.214067 
L 464.92602 55.376615 
L 465.227024 54.818215 
L 465.377526 54.840199 
L 465.603279 55.240696 
L 465.904283 56.43352 
L 466.280538 58.902104 
L 466.807295 63.909632 
L 467.635056 74.22916 
L 469.140076 93.145671 
L 469.742084 97.993941 
L 470.118339 99.684539 
L 470.419343 100.195213 
L 470.569846 100.15655 
L 470.795599 99.723974 
L 471.096603 98.446589 
L 471.472858 95.748317 
L 471.999615 90.065547 
L 472.676874 80.076003 
L 474.031392 55.751376 
L 475.084906 38.914073 
L 475.686914 32.231627 
L 476.13842 29.116193 
L 476.514675 27.881095 
L 476.740428 27.748355 
L 476.89093 27.91228 
L 477.116683 28.53037 
L 477.417687 30.025991 
L 477.869193 33.600161 
L 478.471201 40.450813 
L 479.449464 54.690502 
L 480.728731 72.887229 
L 481.330739 78.879454 
L 481.782245 81.639439 
L 482.083249 82.538464 
L 482.309002 82.693871 
L 482.459504 82.546967 
L 482.685257 81.951493 
L 482.986261 80.469644 
L 483.437767 76.852534 
L 484.039775 69.773142 
L 484.942788 55.903048 
L 486.523059 31.427793 
L 487.125067 25.074604 
L 487.576573 22.111636 
L 487.877577 21.099098 
L 488.10333 20.866725 
L 488.253832 20.965429 
L 488.479585 21.49264 
L 488.780589 22.890664 
L 489.232095 26.400225 
L 489.834103 33.390026 
L 490.661864 46.076649 
L 492.543139 75.847107 
L 492.543139 75.847107 
" clip-path="url(#p9166a85dc6)" style="fill: none; stroke: #000000; stroke-linecap: square"/>
   </g>
   <g id="line2d_11">
    <defs>
     <path id="m7ce92ea2b4" d="M 0 4 
C 1.060812 4 2.078319 3.578535 2.828427 2.828427 
C 3.578535 2.078319 4 1.060812 4 0 
C 4 -1.060812 3.578535 -2.078319 2.828427 -2.828427 
C 2.078319 -3.578535 1.060812 -4 0 -4 
C -1.060812 -4 -2.078319 -3.578535 -2.828427 -2.828427 
C -3.578535 -2.078319 -4 -1.060812 -4 0 
C -4 1.060812 -3.578535 2.078319 -2.828427 2.828427 
C -2.078319 3.578535 -1.060812 4 0 4 
z
" style="stroke: #000000; stroke-opacity: 0.4"/>
    </defs>
    <g clip-path="url(#p9166a85dc6)">
     <use xlink:href="#m7ce92ea2b4" x="116.363364" y="127.266422" style="fill: #1f77b4; fill-opacity: 0.4; stroke: #000000; stroke-opacity: 0.4"/>
     <use xlink:href="#m7ce92ea2b4" x="156.700323" y="248.141186" style="fill: #1f77b4; fill-opacity: 0.4; stroke: #000000; stroke-opacity: 0.4"/>
     <use xlink:href="#m7ce92ea2b4" x="160.733308" y="236.468155" style="fill: #1f77b4; fill-opacity: 0.4; stroke: #000000; stroke-opacity: 0.4"/>
     <use xlink:href="#m7ce92ea2b4" x="172.835454" y="118.019815" style="fill: #1f77b4; fill-opacity: 0.4; stroke: #000000; stroke-opacity: 0.4"/>
     <use xlink:href="#m7ce92ea2b4" x="182.341656" y="110.907591" style="fill: #1f77b4; fill-opacity: 0.4; stroke: #000000; stroke-opacity: 0.4"/>
     <use xlink:href="#m7ce92ea2b4" x="187.356768" y="74.70364" style="fill: #1f77b4; fill-opacity: 0.4; stroke: #000000; stroke-opacity: 0.4"/>
     <use xlink:href="#m7ce92ea2b4" x="188.898428" y="86.049349" style="fill: #1f77b4; fill-opacity: 0.4; stroke: #000000; stroke-opacity: 0.4"/>
     <use xlink:href="#m7ce92ea2b4" x="195.254628" y="80.772632" style="fill: #1f77b4; fill-opacity: 0.4; stroke: #000000; stroke-opacity: 0.4"/>
     <use xlink:href="#m7ce92ea2b4" x="204.224156" y="92.394049" style="fill: #1f77b4; fill-opacity: 0.4; stroke: #000000; stroke-opacity: 0.4"/>
     <use xlink:href="#m7ce92ea2b4" x="229.164395" y="79.242535" style="fill: #1f77b4; fill-opacity: 0.4; stroke: #000000; stroke-opacity: 0.4"/>
     <use xlink:href="#m7ce92ea2b4" x="243.775012" y="106.540369" style="fill: #1f77b4; fill-opacity: 0.4; stroke: #000000; stroke-opacity: 0.4"/>
     <use xlink:href="#m7ce92ea2b4" x="415.10113" y="269.190248" style="fill: #1f77b4; fill-opacity: 0.4; stroke: #000000; stroke-opacity: 0.4"/>
     <use xlink:href="#m7ce92ea2b4" x="434.544891" y="253.879605" style="fill: #1f77b4; fill-opacity: 0.4; stroke: #000000; stroke-opacity: 0.4"/>
     <use xlink:href="#m7ce92ea2b4" x="453.122095" y="113.885769" style="fill: #1f77b4; fill-opacity: 0.4; stroke: #000000; stroke-opacity: 0.4"/>
     <use xlink:href="#m7ce92ea2b4" x="463.584743" y="46.505663" style="fill: #1f77b4; fill-opacity: 0.4; stroke: #000000; stroke-opacity: 0.4"/>
     <use xlink:href="#m7ce92ea2b4" x="468.436484" y="61.044001" style="fill: #1f77b4; fill-opacity: 0.4; stroke: #000000; stroke-opacity: 0.4"/>
     <use xlink:href="#m7ce92ea2b4" x="474.853289" y="37.06105" style="fill: #1f77b4; fill-opacity: 0.4; stroke: #000000; stroke-opacity: 0.4"/>
     <use xlink:href="#m7ce92ea2b4" x="482.036377" y="93.897673" style="fill: #1f77b4; fill-opacity: 0.4; stroke: #000000; stroke-opacity: 0.4"/>
     <use xlink:href="#m7ce92ea2b4" x="486.055927" y="45.648816" style="fill: #1f77b4; fill-opacity: 0.4; stroke: #000000; stroke-opacity: 0.4"/>
     <use xlink:href="#m7ce92ea2b4" x="492.543139" y="64.343022" style="fill: #1f77b4; fill-opacity: 0.4; stroke: #000000; stroke-opacity: 0.4"/>
    </g>
   </g>
   <g id="line2d_12">
    <defs>
     <path id="m84b753b581" d="M 0 4 
C 1.060812 4 2.078319 3.578535 2.828427 2.828427 
C 3.578535 2.078319 4 1.060812 4 0 
C 4 -1.060812 3.578535 -2.078319 2.828427 -2.828427 
C 2.078319 -3.578535 1.060812 -4 0 -4 
C -1.060812 -4 -2.078319 -3.578535 -2.828427 -2.828427 
C -3.578535 -2.078319 -4 -1.060812 -4 0 
C -4 1.060812 -3.578535 2.078319 -2.828427 2.828427 
C -2.078319 3.578535 -1.060812 4 0 4 
z
" style="stroke: #000000; stroke-opacity: 0.8"/>
    </defs>
    <g clip-path="url(#p9166a85dc6)">
     <use xlink:href="#m84b753b581" x="116.363364" y="127.266422" style="fill: #1f77b4; fill-opacity: 0.8; stroke: #000000; stroke-opacity: 0.8"/>
     <use xlink:href="#m84b753b581" x="156.700323" y="248.141186" style="fill: #1f77b4; fill-opacity: 0.8; stroke: #000000; stroke-opacity: 0.8"/>
     <use xlink:href="#m84b753b581" x="160.733308" y="236.468155" style="fill: #1f77b4; fill-opacity: 0.8; stroke: #000000; stroke-opacity: 0.8"/>
     <use xlink:href="#m84b753b581" x="172.835454" y="118.019815" style="fill: #1f77b4; fill-opacity: 0.8; stroke: #000000; stroke-opacity: 0.8"/>
     <use xlink:href="#m84b753b581" x="182.341656" y="110.907591" style="fill: #1f77b4; fill-opacity: 0.8; stroke: #000000; stroke-opacity: 0.8"/>
     <use xlink:href="#m84b753b581" x="187.356768" y="74.70364" style="fill: #1f77b4; fill-opacity: 0.8; stroke: #000000; stroke-opacity: 0.8"/>
     <use xlink:href="#m84b753b581" x="188.898428" y="86.049349" style="fill: #1f77b4; fill-opacity: 0.8; stroke: #000000; stroke-opacity: 0.8"/>
     <use xlink:href="#m84b753b581" x="195.254628" y="80.772632" style="fill: #1f77b4; fill-opacity: 0.8; stroke: #000000; stroke-opacity: 0.8"/>
     <use xlink:href="#m84b753b581" x="204.224156" y="92.394049" style="fill: #1f77b4; fill-opacity: 0.8; stroke: #000000; stroke-opacity: 0.8"/>
     <use xlink:href="#m84b753b581" x="229.164395" y="79.242535" style="fill: #1f77b4; fill-opacity: 0.8; stroke: #000000; stroke-opacity: 0.8"/>
     <use xlink:href="#m84b753b581" x="243.775012" y="106.540369" style="fill: #1f77b4; fill-opacity: 0.8; stroke: #000000; stroke-opacity: 0.8"/>
     <use xlink:href="#m84b753b581" x="415.10113" y="269.190248" style="fill: #1f77b4; fill-opacity: 0.8; stroke: #000000; stroke-opacity: 0.8"/>
     <use xlink:href="#m84b753b581" x="434.544891" y="253.879605" style="fill: #1f77b4; fill-opacity: 0.8; stroke: #000000; stroke-opacity: 0.8"/>
     <use xlink:href="#m84b753b581" x="453.122095" y="113.885769" style="fill: #1f77b4; fill-opacity: 0.8; stroke: #000000; stroke-opacity: 0.8"/>
     <use xlink:href="#m84b753b581" x="463.584743" y="46.505663" style="fill: #1f77b4; fill-opacity: 0.8; stroke: #000000; stroke-opacity: 0.8"/>
     <use xlink:href="#m84b753b581" x="468.436484" y="61.044001" style="fill: #1f77b4; fill-opacity: 0.8; stroke: #000000; stroke-opacity: 0.8"/>
     <use xlink:href="#m84b753b581" x="474.853289" y="37.06105" style="fill: #1f77b4; fill-opacity: 0.8; stroke: #000000; stroke-opacity: 0.8"/>
     <use xlink:href="#m84b753b581" x="482.036377" y="93.897673" style="fill: #1f77b4; fill-opacity: 0.8; stroke: #000000; stroke-opacity: 0.8"/>
     <use xlink:href="#m84b753b581" x="486.055927" y="45.648816" style="fill: #1f77b4; fill-opacity: 0.8; stroke: #000000; stroke-opacity: 0.8"/>
     <use xlink:href="#m84b753b581" x="492.543139" y="64.343022" style="fill: #1f77b4; fill-opacity: 0.8; stroke: #000000; stroke-opacity: 0.8"/>
    </g>
   </g>
   <g id="patch_3">
    <path d="M 97.554375 302.88 
L 97.554375 7.2 
" style="fill: none; stroke: #000000; stroke-width: 3; stroke-linejoin: miter; stroke-linecap: square"/>
   </g>
   <g id="patch_4">
    <path d="M 511.352128 302.88 
L 511.352128 7.2 
" style="fill: none; stroke: #000000; stroke-width: 3; stroke-linejoin: miter; stroke-linecap: square"/>
   </g>
   <g id="patch_5">
    <path d="M 97.554375 302.88 
L 511.352128 302.88 
" style="fill: none; stroke: #000000; stroke-width: 3; stroke-linejoin: miter; stroke-linecap: square"/>
   </g>
   <g id="patch_6">
    <path d="M 97.554375 7.2 
L 511.352128 7.2 
" style="fill: none; stroke: #000000; stroke-width: 3; stroke-linejoin: miter; stroke-linecap: square"/>
   </g>
   <g id="legend_1">
    <g id="patch_7">
     <path d="M 107.354375 38.949375 
L 203.25 38.949375 
Q 206.05 38.949375 206.05 36.149375 
L 206.05 17 
Q 206.05 14.2 203.25 14.2 
L 107.354375 14.2 
Q 104.554375 14.2 104.554375 17 
L 104.554375 36.149375 
Q 104.554375 38.949375 107.354375 38.949375 
z
" style="fill: #ffffff; opacity: 0.8; stroke: #cccccc; stroke-linejoin: miter"/>
    </g>
    <g id="LineCollection_3">
     <path d="M 124.154375 32.537812 
L 124.154375 18.537812 
" style="fill: none; stroke: #1f77b4; stroke-opacity: 0.8; stroke-width: 1.2"/>
    </g>
    <g id="line2d_13"/>
    <g id="line2d_14">
     <g>
      <use xlink:href="#m84b753b581" x="124.154375" y="25.537812" style="fill: #1f77b4; fill-opacity: 0.8; stroke: #000000; stroke-opacity: 0.8"/>
     </g>
    </g>
    <g id="text_5">
     <!-- CRIRES -->
     <g transform="translate(149.354375 30.437812) scale(0.14 -0.14)">
      <defs>
       <path id="DejaVuSans-43" d="M 4122 4306 
L 4122 3641 
Q 3803 3938 3442 4084 
Q 3081 4231 2675 4231 
Q 1875 4231 1450 3742 
Q 1025 3253 1025 2328 
Q 1025 1406 1450 917 
Q 1875 428 2675 428 
Q 3081 428 3442 575 
Q 3803 722 4122 1019 
L 4122 359 
Q 3791 134 3420 21 
Q 3050 -91 2638 -91 
Q 1578 -91 968 557 
Q 359 1206 359 2328 
Q 359 3453 968 4101 
Q 1578 4750 2638 4750 
Q 3056 4750 3426 4639 
Q 3797 4528 4122 4306 
z
" transform="scale(0.015625)"/>
       <path id="DejaVuSans-49" d="M 628 4666 
L 1259 4666 
L 1259 0 
L 628 0 
L 628 4666 
z
" transform="scale(0.015625)"/>
       <path id="DejaVuSans-45" d="M 628 4666 
L 3578 4666 
L 3578 4134 
L 1259 4134 
L 1259 2753 
L 3481 2753 
L 3481 2222 
L 1259 2222 
L 1259 531 
L 3634 531 
L 3634 0 
L 628 0 
L 628 4666 
z
" transform="scale(0.015625)"/>
       <path id="DejaVuSans-53" d="M 3425 4513 
L 3425 3897 
Q 3066 4069 2747 4153 
Q 2428 4238 2131 4238 
Q 1616 4238 1336 4038 
Q 1056 3838 1056 3469 
Q 1056 3159 1242 3001 
Q 1428 2844 1947 2747 
L 2328 2669 
Q 3034 2534 3370 2195 
Q 3706 1856 3706 1288 
Q 3706 609 3251 259 
Q 2797 -91 1919 -91 
Q 1588 -91 1214 -16 
Q 841 59 441 206 
L 441 856 
Q 825 641 1194 531 
Q 1563 422 1919 422 
Q 2459 422 2753 634 
Q 3047 847 3047 1241 
Q 3047 1584 2836 1778 
Q 2625 1972 2144 2069 
L 1759 2144 
Q 1053 2284 737 2584 
Q 422 2884 422 3419 
Q 422 4038 858 4394 
Q 1294 4750 2059 4750 
Q 2388 4750 2728 4690 
Q 3069 4631 3425 4513 
z
" transform="scale(0.015625)"/>
      </defs>
      <use xlink:href="#DejaVuSans-43"/>
      <use xlink:href="#DejaVuSans-52" transform="translate(69.824219 0)"/>
      <use xlink:href="#DejaVuSans-49" transform="translate(139.306641 0)"/>
      <use xlink:href="#DejaVuSans-52" transform="translate(168.798828 0)"/>
      <use xlink:href="#DejaVuSans-45" transform="translate(238.28125 0)"/>
      <use xlink:href="#DejaVuSans-53" transform="translate(301.464844 0)"/>
     </g>
    </g>
   </g>
  </g>
  <g id="axes_2">
   <g id="patch_8">
    <path d="M 97.554375 450.72 
L 511.352128 450.72 
L 511.352128 302.88 
L 97.554375 302.88 
z
" style="fill: #ffffff"/>
   </g>
   <g id="matplotlib.axis_3">
    <g id="xtick_6">
     <g id="line2d_15">
      <g>
       <use xlink:href="#mb3299d9319" x="116.363364" y="450.72" style="stroke: #000000; stroke-width: 0.8"/>
      </g>
     </g>
     <g id="text_6">
      <!-- 0 -->
      <g transform="translate(110.000864 472.916875) scale(0.2 -0.2)">
       <use xlink:href="#DejaVuSans-30"/>
      </g>
     </g>
    </g>
    <g id="xtick_7">
     <g id="line2d_16">
      <g>
       <use xlink:href="#mb3299d9319" x="197.127347" y="450.72" style="stroke: #000000; stroke-width: 0.8"/>
      </g>
     </g>
     <g id="text_7">
      <!-- 100 -->
      <g transform="translate(178.039847 472.916875) scale(0.2 -0.2)">
       <defs>
        <path id="DejaVuSans-31" d="M 794 531 
L 1825 531 
L 1825 4091 
L 703 3866 
L 703 4441 
L 1819 4666 
L 2450 4666 
L 2450 531 
L 3481 531 
L 3481 0 
L 794 0 
L 794 531 
z
" transform="scale(0.015625)"/>
       </defs>
       <use xlink:href="#DejaVuSans-31"/>
       <use xlink:href="#DejaVuSans-30" transform="translate(63.623047 0)"/>
       <use xlink:href="#DejaVuSans-30" transform="translate(127.246094 0)"/>
      </g>
     </g>
    </g>
    <g id="xtick_8">
     <g id="line2d_17">
      <g>
       <use xlink:href="#mb3299d9319" x="277.891331" y="450.72" style="stroke: #000000; stroke-width: 0.8"/>
      </g>
     </g>
     <g id="text_8">
      <!-- 200 -->
      <g transform="translate(258.803831 472.916875) scale(0.2 -0.2)">
       <use xlink:href="#DejaVuSans-32"/>
       <use xlink:href="#DejaVuSans-30" transform="translate(63.623047 0)"/>
       <use xlink:href="#DejaVuSans-30" transform="translate(127.246094 0)"/>
      </g>
     </g>
    </g>
    <g id="xtick_9">
     <g id="line2d_18">
      <g>
       <use xlink:href="#mb3299d9319" x="358.655315" y="450.72" style="stroke: #000000; stroke-width: 0.8"/>
      </g>
     </g>
     <g id="text_9">
      <!-- 300 -->
      <g transform="translate(339.567815 472.916875) scale(0.2 -0.2)">
       <defs>
        <path id="DejaVuSans-33" d="M 2597 2516 
Q 3050 2419 3304 2112 
Q 3559 1806 3559 1356 
Q 3559 666 3084 287 
Q 2609 -91 1734 -91 
Q 1441 -91 1130 -33 
Q 819 25 488 141 
L 488 750 
Q 750 597 1062 519 
Q 1375 441 1716 441 
Q 2309 441 2620 675 
Q 2931 909 2931 1356 
Q 2931 1769 2642 2001 
Q 2353 2234 1838 2234 
L 1294 2234 
L 1294 2753 
L 1863 2753 
Q 2328 2753 2575 2939 
Q 2822 3125 2822 3475 
Q 2822 3834 2567 4026 
Q 2313 4219 1838 4219 
Q 1578 4219 1281 4162 
Q 984 4106 628 3988 
L 628 4550 
Q 988 4650 1302 4700 
Q 1616 4750 1894 4750 
Q 2613 4750 3031 4423 
Q 3450 4097 3450 3541 
Q 3450 3153 3228 2886 
Q 3006 2619 2597 2516 
z
" transform="scale(0.015625)"/>
       </defs>
       <use xlink:href="#DejaVuSans-33"/>
       <use xlink:href="#DejaVuSans-30" transform="translate(63.623047 0)"/>
       <use xlink:href="#DejaVuSans-30" transform="translate(127.246094 0)"/>
      </g>
     </g>
    </g>
    <g id="xtick_10">
     <g id="line2d_19">
      <g>
       <use xlink:href="#mb3299d9319" x="439.419298" y="450.72" style="stroke: #000000; stroke-width: 0.8"/>
      </g>
     </g>
     <g id="text_10">
      <!-- 400 -->
      <g transform="translate(420.331798 472.916875) scale(0.2 -0.2)">
       <defs>
        <path id="DejaVuSans-34" d="M 2419 4116 
L 825 1625 
L 2419 1625 
L 2419 4116 
z
M 2253 4666 
L 3047 4666 
L 3047 1625 
L 3713 1625 
L 3713 1100 
L 3047 1100 
L 3047 0 
L 2419 0 
L 2419 1100 
L 313 1100 
L 313 1709 
L 2253 4666 
z
" transform="scale(0.015625)"/>
       </defs>
       <use xlink:href="#DejaVuSans-34"/>
       <use xlink:href="#DejaVuSans-30" transform="translate(63.623047 0)"/>
       <use xlink:href="#DejaVuSans-30" transform="translate(127.246094 0)"/>
      </g>
     </g>
    </g>
    <g id="text_11">
     <!-- BJD (days) + 2460230 -->
     <g transform="translate(181.945908 497.792812) scale(0.22 -0.22)">
      <defs>
       <path id="DejaVuSans-42" d="M 1259 2228 
L 1259 519 
L 2272 519 
Q 2781 519 3026 730 
Q 3272 941 3272 1375 
Q 3272 1813 3026 2020 
Q 2781 2228 2272 2228 
L 1259 2228 
z
M 1259 4147 
L 1259 2741 
L 2194 2741 
Q 2656 2741 2882 2914 
Q 3109 3088 3109 3444 
Q 3109 3797 2882 3972 
Q 2656 4147 2194 4147 
L 1259 4147 
z
M 628 4666 
L 2241 4666 
Q 2963 4666 3353 4366 
Q 3744 4066 3744 3513 
Q 3744 3084 3544 2831 
Q 3344 2578 2956 2516 
Q 3422 2416 3680 2098 
Q 3938 1781 3938 1306 
Q 3938 681 3513 340 
Q 3088 0 2303 0 
L 628 0 
L 628 4666 
z
" transform="scale(0.015625)"/>
       <path id="DejaVuSans-4a" d="M 628 4666 
L 1259 4666 
L 1259 325 
Q 1259 -519 939 -900 
Q 619 -1281 -91 -1281 
L -331 -1281 
L -331 -750 
L -134 -750 
Q 284 -750 456 -515 
Q 628 -281 628 325 
L 628 4666 
z
" transform="scale(0.015625)"/>
       <path id="DejaVuSans-44" d="M 1259 4147 
L 1259 519 
L 2022 519 
Q 2988 519 3436 956 
Q 3884 1394 3884 2338 
Q 3884 3275 3436 3711 
Q 2988 4147 2022 4147 
L 1259 4147 
z
M 628 4666 
L 1925 4666 
Q 3281 4666 3915 4102 
Q 4550 3538 4550 2338 
Q 4550 1131 3912 565 
Q 3275 0 1925 0 
L 628 0 
L 628 4666 
z
" transform="scale(0.015625)"/>
       <path id="DejaVuSans-64" d="M 2906 2969 
L 2906 4863 
L 3481 4863 
L 3481 0 
L 2906 0 
L 2906 525 
Q 2725 213 2448 61 
Q 2172 -91 1784 -91 
Q 1150 -91 751 415 
Q 353 922 353 1747 
Q 353 2572 751 3078 
Q 1150 3584 1784 3584 
Q 2172 3584 2448 3432 
Q 2725 3281 2906 2969 
z
M 947 1747 
Q 947 1113 1208 752 
Q 1469 391 1925 391 
Q 2381 391 2643 752 
Q 2906 1113 2906 1747 
Q 2906 2381 2643 2742 
Q 2381 3103 1925 3103 
Q 1469 3103 1208 2742 
Q 947 2381 947 1747 
z
" transform="scale(0.015625)"/>
       <path id="DejaVuSans-61" d="M 2194 1759 
Q 1497 1759 1228 1600 
Q 959 1441 959 1056 
Q 959 750 1161 570 
Q 1363 391 1709 391 
Q 2188 391 2477 730 
Q 2766 1069 2766 1631 
L 2766 1759 
L 2194 1759 
z
M 3341 1997 
L 3341 0 
L 2766 0 
L 2766 531 
Q 2569 213 2275 61 
Q 1981 -91 1556 -91 
Q 1019 -91 701 211 
Q 384 513 384 1019 
Q 384 1609 779 1909 
Q 1175 2209 1959 2209 
L 2766 2209 
L 2766 2266 
Q 2766 2663 2505 2880 
Q 2244 3097 1772 3097 
Q 1472 3097 1187 3025 
Q 903 2953 641 2809 
L 641 3341 
Q 956 3463 1253 3523 
Q 1550 3584 1831 3584 
Q 2591 3584 2966 3190 
Q 3341 2797 3341 1997 
z
" transform="scale(0.015625)"/>
       <path id="DejaVuSans-79" d="M 2059 -325 
Q 1816 -950 1584 -1140 
Q 1353 -1331 966 -1331 
L 506 -1331 
L 506 -850 
L 844 -850 
Q 1081 -850 1212 -737 
Q 1344 -625 1503 -206 
L 1606 56 
L 191 3500 
L 800 3500 
L 1894 763 
L 2988 3500 
L 3597 3500 
L 2059 -325 
z
" transform="scale(0.015625)"/>
       <path id="DejaVuSans-2b" d="M 2944 4013 
L 2944 2272 
L 4684 2272 
L 4684 1741 
L 2944 1741 
L 2944 0 
L 2419 0 
L 2419 1741 
L 678 1741 
L 678 2272 
L 2419 2272 
L 2419 4013 
L 2944 4013 
z
" transform="scale(0.015625)"/>
       <path id="DejaVuSans-36" d="M 2113 2584 
Q 1688 2584 1439 2293 
Q 1191 2003 1191 1497 
Q 1191 994 1439 701 
Q 1688 409 2113 409 
Q 2538 409 2786 701 
Q 3034 994 3034 1497 
Q 3034 2003 2786 2293 
Q 2538 2584 2113 2584 
z
M 3366 4563 
L 3366 3988 
Q 3128 4100 2886 4159 
Q 2644 4219 2406 4219 
Q 1781 4219 1451 3797 
Q 1122 3375 1075 2522 
Q 1259 2794 1537 2939 
Q 1816 3084 2150 3084 
Q 2853 3084 3261 2657 
Q 3669 2231 3669 1497 
Q 3669 778 3244 343 
Q 2819 -91 2113 -91 
Q 1303 -91 875 529 
Q 447 1150 447 2328 
Q 447 3434 972 4092 
Q 1497 4750 2381 4750 
Q 2619 4750 2861 4703 
Q 3103 4656 3366 4563 
z
" transform="scale(0.015625)"/>
      </defs>
      <use xlink:href="#DejaVuSans-42"/>
      <use xlink:href="#DejaVuSans-4a" transform="translate(68.603516 0)"/>
      <use xlink:href="#DejaVuSans-44" transform="translate(98.095703 0)"/>
      <use xlink:href="#DejaVuSans-20" transform="translate(175.097656 0)"/>
      <use xlink:href="#DejaVuSans-28" transform="translate(206.884766 0)"/>
      <use xlink:href="#DejaVuSans-64" transform="translate(245.898438 0)"/>
      <use xlink:href="#DejaVuSans-61" transform="translate(309.375 0)"/>
      <use xlink:href="#DejaVuSans-79" transform="translate(370.654297 0)"/>
      <use xlink:href="#DejaVuSans-73" transform="translate(429.833984 0)"/>
      <use xlink:href="#DejaVuSans-29" transform="translate(481.933594 0)"/>
      <use xlink:href="#DejaVuSans-20" transform="translate(520.947266 0)"/>
      <use xlink:href="#DejaVuSans-2b" transform="translate(552.734375 0)"/>
      <use xlink:href="#DejaVuSans-20" transform="translate(636.523438 0)"/>
      <use xlink:href="#DejaVuSans-32" transform="translate(668.310547 0)"/>
      <use xlink:href="#DejaVuSans-34" transform="translate(731.933594 0)"/>
      <use xlink:href="#DejaVuSans-36" transform="translate(795.556641 0)"/>
      <use xlink:href="#DejaVuSans-30" transform="translate(859.179688 0)"/>
      <use xlink:href="#DejaVuSans-32" transform="translate(922.802734 0)"/>
      <use xlink:href="#DejaVuSans-33" transform="translate(986.425781 0)"/>
      <use xlink:href="#DejaVuSans-30" transform="translate(1050.048828 0)"/>
     </g>
    </g>
   </g>
   <g id="matplotlib.axis_4">
    <g id="ytick_4">
     <g id="line2d_20">
      <g>
       <use xlink:href="#m279db0ff96" x="97.554375" y="443.431639" style="stroke: #000000; stroke-width: 0.8"/>
      </g>
     </g>
     <g id="text_12">
      <!-- −100 -->
      <g transform="translate(35.62 451.030076) scale(0.2 -0.2)">
       <use xlink:href="#DejaVuSans-2212"/>
       <use xlink:href="#DejaVuSans-31" transform="translate(83.789062 0)"/>
       <use xlink:href="#DejaVuSans-30" transform="translate(147.412109 0)"/>
       <use xlink:href="#DejaVuSans-30" transform="translate(211.035156 0)"/>
      </g>
     </g>
    </g>
    <g id="ytick_5">
     <g id="line2d_21">
      <g>
       <use xlink:href="#m279db0ff96" x="97.554375" y="377.659366" style="stroke: #000000; stroke-width: 0.8"/>
      </g>
     </g>
     <g id="text_13">
      <!-- 0 -->
      <g transform="translate(77.829375 385.257803) scale(0.2 -0.2)">
       <use xlink:href="#DejaVuSans-30"/>
      </g>
     </g>
    </g>
    <g id="ytick_6">
     <g id="line2d_22">
      <g>
       <use xlink:href="#m279db0ff96" x="97.554375" y="311.887093" style="stroke: #000000; stroke-width: 0.8"/>
      </g>
     </g>
     <g id="text_14">
      <!-- 100 -->
      <g transform="translate(52.379375 319.485531) scale(0.2 -0.2)">
       <use xlink:href="#DejaVuSans-31"/>
       <use xlink:href="#DejaVuSans-30" transform="translate(63.623047 0)"/>
       <use xlink:href="#DejaVuSans-30" transform="translate(127.246094 0)"/>
      </g>
     </g>
    </g>
    <g id="text_15">
     <!-- Residuals ($\frac{m}{s}$) -->
     <g transform="translate(25.46 450.5) rotate(-90) scale(0.22 -0.22)">
      <defs>
       <path id="DejaVuSans-65" d="M 3597 1894 
L 3597 1613 
L 953 1613 
Q 991 1019 1311 708 
Q 1631 397 2203 397 
Q 2534 397 2845 478 
Q 3156 559 3463 722 
L 3463 178 
Q 3153 47 2828 -22 
Q 2503 -91 2169 -91 
Q 1331 -91 842 396 
Q 353 884 353 1716 
Q 353 2575 817 3079 
Q 1281 3584 2069 3584 
Q 2775 3584 3186 3129 
Q 3597 2675 3597 1894 
z
M 3022 2063 
Q 3016 2534 2758 2815 
Q 2500 3097 2075 3097 
Q 1594 3097 1305 2825 
Q 1016 2553 972 2059 
L 3022 2063 
z
" transform="scale(0.015625)"/>
       <path id="DejaVuSans-69" d="M 603 3500 
L 1178 3500 
L 1178 0 
L 603 0 
L 603 3500 
z
M 603 4863 
L 1178 4863 
L 1178 4134 
L 603 4134 
L 603 4863 
z
" transform="scale(0.015625)"/>
       <path id="DejaVuSans-75" d="M 544 1381 
L 544 3500 
L 1119 3500 
L 1119 1403 
Q 1119 906 1312 657 
Q 1506 409 1894 409 
Q 2359 409 2629 706 
Q 2900 1003 2900 1516 
L 2900 3500 
L 3475 3500 
L 3475 0 
L 2900 0 
L 2900 538 
Q 2691 219 2414 64 
Q 2138 -91 1772 -91 
Q 1169 -91 856 284 
Q 544 659 544 1381 
z
M 1991 3584 
L 1991 3584 
z
" transform="scale(0.015625)"/>
       <path id="DejaVuSans-6c" d="M 603 4863 
L 1178 4863 
L 1178 0 
L 603 0 
L 603 4863 
z
" transform="scale(0.015625)"/>
      </defs>
      <use xlink:href="#DejaVuSans-52" transform="translate(0 0.003125)"/>
      <use xlink:href="#DejaVuSans-65" transform="translate(69.482422 0.003125)"/>
      <use xlink:href="#DejaVuSans-73" transform="translate(131.005859 0.003125)"/>
      <use xlink:href="#DejaVuSans-69" transform="translate(183.105469 0.003125)"/>
      <use xlink:href="#DejaVuSans-64" transform="translate(210.888672 0.003125)"/>
      <use xlink:href="#DejaVuSans-75" transform="translate(274.365234 0.003125)"/>
      <use xlink:href="#DejaVuSans-61" transform="translate(337.744141 0.003125)"/>
      <use xlink:href="#DejaVuSans-6c" transform="translate(399.023438 0.003125)"/>
      <use xlink:href="#DejaVuSans-73" transform="translate(426.806641 0.003125)"/>
      <use xlink:href="#DejaVuSans-20" transform="translate(478.90625 0.003125)"/>
      <use xlink:href="#DejaVuSans-28" transform="translate(510.693359 0.003125)"/>
      <use xlink:href="#DejaVuSans-Oblique-6d" transform="translate(549.707031 43.8) scale(0.7)"/>
      <use xlink:href="#DejaVuSans-Oblique-73" transform="translate(565.707031 -26.65) scale(0.7)"/>
      <use xlink:href="#DejaVuSans-29" transform="translate(630.395508 0.003125)"/>
      <path d="M 549.707031 18.8 
L 549.707031 25.05 
L 617.895508 25.05 
L 617.895508 18.8 
L 549.707031 18.8 
z
"/>
     </g>
    </g>
   </g>
   <g id="line2d_23">
    <path d="M 97.554375 377.659366 
L 511.352128 377.659366 
" clip-path="url(#p75564c1621)" style="fill: none; stroke: #808080; stroke-width: 2; stroke-linecap: square"/>
   </g>
   <g id="LineCollection_4">
    <path d="M 116.363364 378.760291 
L 116.363364 342.486655 
" clip-path="url(#p75564c1621)" style="fill: none; stroke: #1f77b4; stroke-opacity: 0.4; stroke-width: 1.2"/>
    <path d="M 156.700323 366.070612 
L 156.700323 334.36182 
" clip-path="url(#p75564c1621)" style="fill: none; stroke: #1f77b4; stroke-opacity: 0.4; stroke-width: 1.2"/>
    <path d="M 160.733308 444 
L 160.733308 394.102489 
" clip-path="url(#p75564c1621)" style="fill: none; stroke: #1f77b4; stroke-opacity: 0.4; stroke-width: 1.2"/>
    <path d="M 172.835454 357.984552 
L 172.835454 309.6 
" clip-path="url(#p75564c1621)" style="fill: none; stroke: #1f77b4; stroke-opacity: 0.4; stroke-width: 1.2"/>
    <path d="M 182.341656 365.61904 
L 182.341656 319.191958 
" clip-path="url(#p75564c1621)" style="fill: none; stroke: #1f77b4; stroke-opacity: 0.4; stroke-width: 1.2"/>
    <path d="M 187.356768 403.36335 
L 187.356768 371.070638 
" clip-path="url(#p75564c1621)" style="fill: none; stroke: #1f77b4; stroke-opacity: 0.4; stroke-width: 1.2"/>
    <path d="M 188.898428 405.337341 
L 188.898428 358.189064 
" clip-path="url(#p75564c1621)" style="fill: none; stroke: #1f77b4; stroke-opacity: 0.4; stroke-width: 1.2"/>
    <path d="M 195.254628 419.2688 
L 195.254628 380.104478 
" clip-path="url(#p75564c1621)" style="fill: none; stroke: #1f77b4; stroke-opacity: 0.4; stroke-width: 1.2"/>
    <path d="M 204.224156 418.171695 
L 204.224156 363.492817 
" clip-path="url(#p75564c1621)" style="fill: none; stroke: #1f77b4; stroke-opacity: 0.4; stroke-width: 1.2"/>
    <path d="M 229.164395 389.571577 
L 229.164395 347.054055 
" clip-path="url(#p75564c1621)" style="fill: none; stroke: #1f77b4; stroke-opacity: 0.4; stroke-width: 1.2"/>
    <path d="M 243.775012 420.118263 
L 243.775012 378.115514 
" clip-path="url(#p75564c1621)" style="fill: none; stroke: #1f77b4; stroke-opacity: 0.4; stroke-width: 1.2"/>
    <path d="M 415.10113 404.493794 
L 415.10113 367.67121 
" clip-path="url(#p75564c1621)" style="fill: none; stroke: #1f77b4; stroke-opacity: 0.4; stroke-width: 1.2"/>
    <path d="M 434.544891 408.973375 
L 434.544891 369.789908 
" clip-path="url(#p75564c1621)" style="fill: none; stroke: #1f77b4; stroke-opacity: 0.4; stroke-width: 1.2"/>
    <path d="M 453.122095 411.119542 
L 453.122095 379.697307 
" clip-path="url(#p75564c1621)" style="fill: none; stroke: #1f77b4; stroke-opacity: 0.4; stroke-width: 1.2"/>
    <path d="M 463.584743 359.40446 
L 463.584743 326.316317 
" clip-path="url(#p75564c1621)" style="fill: none; stroke: #1f77b4; stroke-opacity: 0.4; stroke-width: 1.2"/>
    <path d="M 468.436484 363.539999 
L 468.436484 312.092359 
" clip-path="url(#p75564c1621)" style="fill: none; stroke: #1f77b4; stroke-opacity: 0.4; stroke-width: 1.2"/>
    <path d="M 474.853289 384.500362 
L 474.853289 353.887976 
" clip-path="url(#p75564c1621)" style="fill: none; stroke: #1f77b4; stroke-opacity: 0.4; stroke-width: 1.2"/>
    <path d="M 482.036377 408.873487 
L 482.036377 384.53699 
" clip-path="url(#p75564c1621)" style="fill: none; stroke: #1f77b4; stroke-opacity: 0.4; stroke-width: 1.2"/>
    <path d="M 486.055927 411.120824 
L 486.055927 370.092419 
" clip-path="url(#p75564c1621)" style="fill: none; stroke: #1f77b4; stroke-opacity: 0.4; stroke-width: 1.2"/>
    <path d="M 492.543139 393.989675 
L 492.543139 323.049613 
" clip-path="url(#p75564c1621)" style="fill: none; stroke: #1f77b4; stroke-opacity: 0.4; stroke-width: 1.2"/>
   </g>
   <g id="LineCollection_5">
    <path d="M 116.363364 378.69863 
L 116.363364 342.548315 
" clip-path="url(#p75564c1621)" style="fill: none; stroke: #1f77b4; stroke-opacity: 0.8; stroke-width: 1.2"/>
    <path d="M 156.700323 366.000037 
L 156.700323 334.432395 
" clip-path="url(#p75564c1621)" style="fill: none; stroke: #1f77b4; stroke-opacity: 0.8; stroke-width: 1.2"/>
    <path d="M 160.733308 443.955211 
L 160.733308 394.147278 
" clip-path="url(#p75564c1621)" style="fill: none; stroke: #1f77b4; stroke-opacity: 0.8; stroke-width: 1.2"/>
    <path d="M 172.835454 357.93836 
L 172.835454 309.646192 
" clip-path="url(#p75564c1621)" style="fill: none; stroke: #1f77b4; stroke-opacity: 0.8; stroke-width: 1.2"/>
    <path d="M 182.341656 365.570896 
L 182.341656 319.240102 
" clip-path="url(#p75564c1621)" style="fill: none; stroke: #1f77b4; stroke-opacity: 0.8; stroke-width: 1.2"/>
    <path d="M 187.356768 403.294057 
L 187.356768 371.139931 
" clip-path="url(#p75564c1621)" style="fill: none; stroke: #1f77b4; stroke-opacity: 0.8; stroke-width: 1.2"/>
    <path d="M 188.898428 405.289935 
L 188.898428 358.23647 
" clip-path="url(#p75564c1621)" style="fill: none; stroke: #1f77b4; stroke-opacity: 0.8; stroke-width: 1.2"/>
    <path d="M 195.254628 419.211704 
L 195.254628 380.161573 
" clip-path="url(#p75564c1621)" style="fill: none; stroke: #1f77b4; stroke-opacity: 0.8; stroke-width: 1.2"/>
    <path d="M 204.224156 418.130829 
L 204.224156 363.533684 
" clip-path="url(#p75564c1621)" style="fill: none; stroke: #1f77b4; stroke-opacity: 0.8; stroke-width: 1.2"/>
    <path d="M 229.164395 389.518995 
L 229.164395 347.106636 
" clip-path="url(#p75564c1621)" style="fill: none; stroke: #1f77b4; stroke-opacity: 0.8; stroke-width: 1.2"/>
    <path d="M 243.775012 420.065035 
L 243.775012 378.168741 
" clip-path="url(#p75564c1621)" style="fill: none; stroke: #1f77b4; stroke-opacity: 0.8; stroke-width: 1.2"/>
    <path d="M 415.10113 404.433055 
L 415.10113 367.731949 
" clip-path="url(#p75564c1621)" style="fill: none; stroke: #1f77b4; stroke-opacity: 0.8; stroke-width: 1.2"/>
    <path d="M 434.544891 408.916307 
L 434.544891 369.846976 
" clip-path="url(#p75564c1621)" style="fill: none; stroke: #1f77b4; stroke-opacity: 0.8; stroke-width: 1.2"/>
    <path d="M 453.122095 411.04832 
L 453.122095 379.768528 
" clip-path="url(#p75564c1621)" style="fill: none; stroke: #1f77b4; stroke-opacity: 0.8; stroke-width: 1.2"/>
    <path d="M 463.584743 359.336839 
L 463.584743 326.383938 
" clip-path="url(#p75564c1621)" style="fill: none; stroke: #1f77b4; stroke-opacity: 0.8; stroke-width: 1.2"/>
    <path d="M 468.436484 363.496562 
L 468.436484 312.135796 
" clip-path="url(#p75564c1621)" style="fill: none; stroke: #1f77b4; stroke-opacity: 0.8; stroke-width: 1.2"/>
    <path d="M 474.853289 384.427247 
L 474.853289 353.96109 
" clip-path="url(#p75564c1621)" style="fill: none; stroke: #1f77b4; stroke-opacity: 0.8; stroke-width: 1.2"/>
    <path d="M 482.036377 408.781389 
L 482.036377 384.629088 
" clip-path="url(#p75564c1621)" style="fill: none; stroke: #1f77b4; stroke-opacity: 0.8; stroke-width: 1.2"/>
    <path d="M 486.055927 411.066329 
L 486.055927 370.146913 
" clip-path="url(#p75564c1621)" style="fill: none; stroke: #1f77b4; stroke-opacity: 0.8; stroke-width: 1.2"/>
    <path d="M 492.543139 393.958185 
L 492.543139 323.081103 
" clip-path="url(#p75564c1621)" style="fill: none; stroke: #1f77b4; stroke-opacity: 0.8; stroke-width: 1.2"/>
   </g>
   <g id="line2d_24">
    <g clip-path="url(#p75564c1621)">
     <use xlink:href="#m7ce92ea2b4" x="116.363364" y="360.623473" style="fill: #1f77b4; fill-opacity: 0.4; stroke: #000000; stroke-opacity: 0.4"/>
     <use xlink:href="#m7ce92ea2b4" x="156.700323" y="350.216216" style="fill: #1f77b4; fill-opacity: 0.4; stroke: #000000; stroke-opacity: 0.4"/>
     <use xlink:href="#m7ce92ea2b4" x="160.733308" y="419.051244" style="fill: #1f77b4; fill-opacity: 0.4; stroke: #000000; stroke-opacity: 0.4"/>
     <use xlink:href="#m7ce92ea2b4" x="172.835454" y="333.792276" style="fill: #1f77b4; fill-opacity: 0.4; stroke: #000000; stroke-opacity: 0.4"/>
     <use xlink:href="#m7ce92ea2b4" x="182.341656" y="342.405499" style="fill: #1f77b4; fill-opacity: 0.4; stroke: #000000; stroke-opacity: 0.4"/>
     <use xlink:href="#m7ce92ea2b4" x="187.356768" y="387.216994" style="fill: #1f77b4; fill-opacity: 0.4; stroke: #000000; stroke-opacity: 0.4"/>
     <use xlink:href="#m7ce92ea2b4" x="188.898428" y="381.763203" style="fill: #1f77b4; fill-opacity: 0.4; stroke: #000000; stroke-opacity: 0.4"/>
     <use xlink:href="#m7ce92ea2b4" x="195.254628" y="399.686639" style="fill: #1f77b4; fill-opacity: 0.4; stroke: #000000; stroke-opacity: 0.4"/>
     <use xlink:href="#m7ce92ea2b4" x="204.224156" y="390.832256" style="fill: #1f77b4; fill-opacity: 0.4; stroke: #000000; stroke-opacity: 0.4"/>
     <use xlink:href="#m7ce92ea2b4" x="229.164395" y="368.312816" style="fill: #1f77b4; fill-opacity: 0.4; stroke: #000000; stroke-opacity: 0.4"/>
     <use xlink:href="#m7ce92ea2b4" x="243.775012" y="399.116888" style="fill: #1f77b4; fill-opacity: 0.4; stroke: #000000; stroke-opacity: 0.4"/>
     <use xlink:href="#m7ce92ea2b4" x="415.10113" y="386.082502" style="fill: #1f77b4; fill-opacity: 0.4; stroke: #000000; stroke-opacity: 0.4"/>
     <use xlink:href="#m7ce92ea2b4" x="434.544891" y="389.381642" style="fill: #1f77b4; fill-opacity: 0.4; stroke: #000000; stroke-opacity: 0.4"/>
     <use xlink:href="#m7ce92ea2b4" x="453.122095" y="395.408424" style="fill: #1f77b4; fill-opacity: 0.4; stroke: #000000; stroke-opacity: 0.4"/>
     <use xlink:href="#m7ce92ea2b4" x="463.584743" y="342.860389" style="fill: #1f77b4; fill-opacity: 0.4; stroke: #000000; stroke-opacity: 0.4"/>
     <use xlink:href="#m7ce92ea2b4" x="468.436484" y="337.816179" style="fill: #1f77b4; fill-opacity: 0.4; stroke: #000000; stroke-opacity: 0.4"/>
     <use xlink:href="#m7ce92ea2b4" x="474.853289" y="369.194169" style="fill: #1f77b4; fill-opacity: 0.4; stroke: #000000; stroke-opacity: 0.4"/>
     <use xlink:href="#m7ce92ea2b4" x="482.036377" y="396.705238" style="fill: #1f77b4; fill-opacity: 0.4; stroke: #000000; stroke-opacity: 0.4"/>
     <use xlink:href="#m7ce92ea2b4" x="486.055927" y="390.606621" style="fill: #1f77b4; fill-opacity: 0.4; stroke: #000000; stroke-opacity: 0.4"/>
     <use xlink:href="#m7ce92ea2b4" x="492.543139" y="358.519644" style="fill: #1f77b4; fill-opacity: 0.4; stroke: #000000; stroke-opacity: 0.4"/>
    </g>
   </g>
   <g id="line2d_25">
    <g clip-path="url(#p75564c1621)">
     <use xlink:href="#m84b753b581" x="116.363364" y="360.623473" style="fill: #1f77b4; fill-opacity: 0.8; stroke: #000000; stroke-opacity: 0.8"/>
     <use xlink:href="#m84b753b581" x="156.700323" y="350.216216" style="fill: #1f77b4; fill-opacity: 0.8; stroke: #000000; stroke-opacity: 0.8"/>
     <use xlink:href="#m84b753b581" x="160.733308" y="419.051244" style="fill: #1f77b4; fill-opacity: 0.8; stroke: #000000; stroke-opacity: 0.8"/>
     <use xlink:href="#m84b753b581" x="172.835454" y="333.792276" style="fill: #1f77b4; fill-opacity: 0.8; stroke: #000000; stroke-opacity: 0.8"/>
     <use xlink:href="#m84b753b581" x="182.341656" y="342.405499" style="fill: #1f77b4; fill-opacity: 0.8; stroke: #000000; stroke-opacity: 0.8"/>
     <use xlink:href="#m84b753b581" x="187.356768" y="387.216994" style="fill: #1f77b4; fill-opacity: 0.8; stroke: #000000; stroke-opacity: 0.8"/>
     <use xlink:href="#m84b753b581" x="188.898428" y="381.763203" style="fill: #1f77b4; fill-opacity: 0.8; stroke: #000000; stroke-opacity: 0.8"/>
     <use xlink:href="#m84b753b581" x="195.254628" y="399.686639" style="fill: #1f77b4; fill-opacity: 0.8; stroke: #000000; stroke-opacity: 0.8"/>
     <use xlink:href="#m84b753b581" x="204.224156" y="390.832256" style="fill: #1f77b4; fill-opacity: 0.8; stroke: #000000; stroke-opacity: 0.8"/>
     <use xlink:href="#m84b753b581" x="229.164395" y="368.312816" style="fill: #1f77b4; fill-opacity: 0.8; stroke: #000000; stroke-opacity: 0.8"/>
     <use xlink:href="#m84b753b581" x="243.775012" y="399.116888" style="fill: #1f77b4; fill-opacity: 0.8; stroke: #000000; stroke-opacity: 0.8"/>
     <use xlink:href="#m84b753b581" x="415.10113" y="386.082502" style="fill: #1f77b4; fill-opacity: 0.8; stroke: #000000; stroke-opacity: 0.8"/>
     <use xlink:href="#m84b753b581" x="434.544891" y="389.381642" style="fill: #1f77b4; fill-opacity: 0.8; stroke: #000000; stroke-opacity: 0.8"/>
     <use xlink:href="#m84b753b581" x="453.122095" y="395.408424" style="fill: #1f77b4; fill-opacity: 0.8; stroke: #000000; stroke-opacity: 0.8"/>
     <use xlink:href="#m84b753b581" x="463.584743" y="342.860389" style="fill: #1f77b4; fill-opacity: 0.8; stroke: #000000; stroke-opacity: 0.8"/>
     <use xlink:href="#m84b753b581" x="468.436484" y="337.816179" style="fill: #1f77b4; fill-opacity: 0.8; stroke: #000000; stroke-opacity: 0.8"/>
     <use xlink:href="#m84b753b581" x="474.853289" y="369.194169" style="fill: #1f77b4; fill-opacity: 0.8; stroke: #000000; stroke-opacity: 0.8"/>
     <use xlink:href="#m84b753b581" x="482.036377" y="396.705238" style="fill: #1f77b4; fill-opacity: 0.8; stroke: #000000; stroke-opacity: 0.8"/>
     <use xlink:href="#m84b753b581" x="486.055927" y="390.606621" style="fill: #1f77b4; fill-opacity: 0.8; stroke: #000000; stroke-opacity: 0.8"/>
     <use xlink:href="#m84b753b581" x="492.543139" y="358.519644" style="fill: #1f77b4; fill-opacity: 0.8; stroke: #000000; stroke-opacity: 0.8"/>
    </g>
   </g>
   <g id="patch_9">
    <path d="M 97.554375 450.72 
L 97.554375 302.88 
" style="fill: none; stroke: #000000; stroke-width: 3; stroke-linejoin: miter; stroke-linecap: square"/>
   </g>
   <g id="patch_10">
    <path d="M 511.352128 450.72 
L 511.352128 302.88 
" style="fill: none; stroke: #000000; stroke-width: 3; stroke-linejoin: miter; stroke-linecap: square"/>
   </g>
   <g id="patch_11">
    <path d="M 97.554375 450.72 
L 511.352128 450.72 
" style="fill: none; stroke: #000000; stroke-width: 3; stroke-linejoin: miter; stroke-linecap: square"/>
   </g>
   <g id="patch_12">
    <path d="M 97.554375 302.88 
L 511.352128 302.88 
" style="fill: none; stroke: #000000; stroke-width: 3; stroke-linejoin: miter; stroke-linecap: square"/>
   </g>
  </g>
  <g id="axes_3">
   <g id="patch_13">
    <path d="M 530.161117 302.88 
L 655.554375 302.88 
L 655.554375 7.2 
L 530.161117 7.2 
z
" style="fill: #ffffff"/>
   </g>
   <g id="patch_14">
    <path d="M 530.161117 269.190248 
L 589.872192 269.190248 
L 589.872192 240.174099 
L 530.161117 240.174099 
z
" clip-path="url(#pd15668e867)" style="fill: #1f77b4"/>
   </g>
   <g id="patch_15">
    <path d="M 530.161117 240.174099 
L 550.064808 240.174099 
L 550.064808 211.157949 
L 530.161117 211.157949 
z
" clip-path="url(#pd15668e867)" style="fill: #1f77b4"/>
   </g>
   <g id="patch_16">
    <path d="M 530.161117 211.157949 
L 530.161117 211.157949 
L 530.161117 182.141799 
L 530.161117 182.141799 
z
" clip-path="url(#pd15668e867)" style="fill: #1f77b4"/>
   </g>
   <g id="patch_17">
    <path d="M 530.161117 182.141799 
L 530.161117 182.141799 
L 530.161117 153.125649 
L 530.161117 153.125649 
z
" clip-path="url(#pd15668e867)" style="fill: #1f77b4"/>
   </g>
   <g id="patch_18">
    <path d="M 530.161117 153.125649 
L 550.064808 153.125649 
L 550.064808 124.1095 
L 530.161117 124.1095 
z
" clip-path="url(#pd15668e867)" style="fill: #1f77b4"/>
   </g>
   <g id="patch_19">
    <path d="M 530.161117 124.1095 
L 609.775884 124.1095 
L 609.775884 95.09335 
L 530.161117 95.09335 
z
" clip-path="url(#pd15668e867)" style="fill: #1f77b4"/>
   </g>
   <g id="patch_20">
    <path d="M 530.161117 95.09335 
L 649.583267 95.09335 
L 649.583267 66.0772 
L 530.161117 66.0772 
z
" clip-path="url(#pd15668e867)" style="fill: #1f77b4"/>
   </g>
   <g id="patch_21">
    <path d="M 530.161117 66.0772 
L 629.679576 66.0772 
L 629.679576 37.06105 
L 530.161117 37.06105 
z
" clip-path="url(#pd15668e867)" style="fill: #1f77b4"/>
   </g>
   <g id="matplotlib.axis_5">
    <g id="xtick_11">
     <g id="line2d_26">
      <g>
       <use xlink:href="#mb3299d9319" x="530.161117" y="302.88" style="stroke: #000000; stroke-width: 0.8"/>
      </g>
     </g>
    </g>
    <g id="xtick_12">
     <g id="line2d_27">
      <g>
       <use xlink:href="#mb3299d9319" x="629.679576" y="302.88" style="stroke: #000000; stroke-width: 0.8"/>
      </g>
     </g>
    </g>
   </g>
   <g id="matplotlib.axis_6">
    <g id="ytick_7">
     <g id="line2d_28">
      <g>
       <use xlink:href="#m279db0ff96" x="530.161117" y="223.819126" style="stroke: #000000; stroke-width: 0.8"/>
      </g>
     </g>
    </g>
    <g id="ytick_8">
     <g id="line2d_29">
      <g>
       <use xlink:href="#m279db0ff96" x="530.161117" y="144.753212" style="stroke: #000000; stroke-width: 0.8"/>
      </g>
     </g>
    </g>
    <g id="ytick_9">
     <g id="line2d_30">
      <g>
       <use xlink:href="#m279db0ff96" x="530.161117" y="65.687298" style="stroke: #000000; stroke-width: 0.8"/>
      </g>
     </g>
    </g>
   </g>
   <g id="patch_22">
    <path d="M 530.161117 302.88 
L 530.161117 7.2 
" style="fill: none; stroke: #000000; stroke-width: 3; stroke-linejoin: miter; stroke-linecap: square"/>
   </g>
   <g id="patch_23">
    <path d="M 655.554375 302.88 
L 655.554375 7.2 
" style="fill: none; stroke: #000000; stroke-width: 3; stroke-linejoin: miter; stroke-linecap: square"/>
   </g>
   <g id="patch_24">
    <path d="M 530.161117 302.88 
L 655.554375 302.88 
" style="fill: none; stroke: #000000; stroke-width: 3; stroke-linejoin: miter; stroke-linecap: square"/>
   </g>
   <g id="patch_25">
    <path d="M 530.161117 7.2 
L 655.554375 7.2 
" style="fill: none; stroke: #000000; stroke-width: 3; stroke-linejoin: miter; stroke-linecap: square"/>
   </g>
  </g>
  <g id="axes_4">
   <g id="patch_26">
    <path d="M 530.161117 450.72 
L 655.554375 450.72 
L 655.554375 302.88 
L 530.161117 302.88 
z
" style="fill: #ffffff"/>
   </g>
   <g id="patch_27">
    <path d="M 530.161117 419.051244 
L 550.064808 419.051244 
L 550.064808 408.393873 
L 530.161117 408.393873 
z
" clip-path="url(#p402191b89b)" style="fill: #1f77b4"/>
   </g>
   <g id="patch_28">
    <path d="M 530.161117 408.393873 
L 569.9685 408.393873 
L 569.9685 397.736502 
L 530.161117 397.736502 
z
" clip-path="url(#p402191b89b)" style="fill: #1f77b4"/>
   </g>
   <g id="patch_29">
    <path d="M 530.161117 397.736502 
L 649.583267 397.736502 
L 649.583267 387.079131 
L 530.161117 387.079131 
z
" clip-path="url(#p402191b89b)" style="fill: #1f77b4"/>
   </g>
   <g id="patch_30">
    <path d="M 530.161117 387.079131 
L 569.9685 387.079131 
L 569.9685 376.42176 
L 530.161117 376.42176 
z
" clip-path="url(#p402191b89b)" style="fill: #1f77b4"/>
   </g>
   <g id="patch_31">
    <path d="M 530.161117 376.42176 
L 569.9685 376.42176 
L 569.9685 365.764389 
L 530.161117 365.764389 
z
" clip-path="url(#p402191b89b)" style="fill: #1f77b4"/>
   </g>
   <g id="patch_32">
    <path d="M 530.161117 365.764389 
L 569.9685 365.764389 
L 569.9685 355.107018 
L 530.161117 355.107018 
z
" clip-path="url(#p402191b89b)" style="fill: #1f77b4"/>
   </g>
   <g id="patch_33">
    <path d="M 530.161117 355.107018 
L 550.064808 355.107018 
L 550.064808 344.449647 
L 530.161117 344.449647 
z
" clip-path="url(#p402191b89b)" style="fill: #1f77b4"/>
   </g>
   <g id="patch_34">
    <path d="M 530.161117 344.449647 
L 609.775884 344.449647 
L 609.775884 333.792276 
L 530.161117 333.792276 
z
" clip-path="url(#p402191b89b)" style="fill: #1f77b4"/>
   </g>
   <g id="matplotlib.axis_7">
    <g id="xtick_13">
     <g id="line2d_31">
      <g>
       <use xlink:href="#mb3299d9319" x="530.161117" y="450.72" style="stroke: #000000; stroke-width: 0.8"/>
      </g>
     </g>
     <g id="text_16">
      <!-- 0 -->
      <g transform="translate(523.798617 472.916875) scale(0.2 -0.2)">
       <use xlink:href="#DejaVuSans-30"/>
      </g>
     </g>
    </g>
    <g id="xtick_14">
     <g id="line2d_32">
      <g>
       <use xlink:href="#mb3299d9319" x="629.679576" y="450.72" style="stroke: #000000; stroke-width: 0.8"/>
      </g>
     </g>
     <g id="text_17">
      <!-- 5 -->
      <g transform="translate(623.317076 472.916875) scale(0.2 -0.2)">
       <defs>
        <path id="DejaVuSans-35" d="M 691 4666 
L 3169 4666 
L 3169 4134 
L 1269 4134 
L 1269 2991 
Q 1406 3038 1543 3061 
Q 1681 3084 1819 3084 
Q 2600 3084 3056 2656 
Q 3513 2228 3513 1497 
Q 3513 744 3044 326 
Q 2575 -91 1722 -91 
Q 1428 -91 1123 -41 
Q 819 9 494 109 
L 494 744 
Q 775 591 1075 516 
Q 1375 441 1709 441 
Q 2250 441 2565 725 
Q 2881 1009 2881 1497 
Q 2881 1984 2565 2268 
Q 2250 2553 1709 2553 
Q 1456 2553 1204 2497 
Q 953 2441 691 2322 
L 691 4666 
z
" transform="scale(0.015625)"/>
       </defs>
       <use xlink:href="#DejaVuSans-35"/>
      </g>
     </g>
    </g>
    <g id="text_18">
     <!-- Counts -->
     <g transform="translate(554.460871 497.792812) scale(0.22 -0.22)">
      <defs>
       <path id="DejaVuSans-6f" d="M 1959 3097 
Q 1497 3097 1228 2736 
Q 959 2375 959 1747 
Q 959 1119 1226 758 
Q 1494 397 1959 397 
Q 2419 397 2687 759 
Q 2956 1122 2956 1747 
Q 2956 2369 2687 2733 
Q 2419 3097 1959 3097 
z
M 1959 3584 
Q 2709 3584 3137 3096 
Q 3566 2609 3566 1747 
Q 3566 888 3137 398 
Q 2709 -91 1959 -91 
Q 1206 -91 779 398 
Q 353 888 353 1747 
Q 353 2609 779 3096 
Q 1206 3584 1959 3584 
z
" transform="scale(0.015625)"/>
       <path id="DejaVuSans-6e" d="M 3513 2113 
L 3513 0 
L 2938 0 
L 2938 2094 
Q 2938 2591 2744 2837 
Q 2550 3084 2163 3084 
Q 1697 3084 1428 2787 
Q 1159 2491 1159 1978 
L 1159 0 
L 581 0 
L 581 3500 
L 1159 3500 
L 1159 2956 
Q 1366 3272 1645 3428 
Q 1925 3584 2291 3584 
Q 2894 3584 3203 3211 
Q 3513 2838 3513 2113 
z
" transform="scale(0.015625)"/>
       <path id="DejaVuSans-74" d="M 1172 4494 
L 1172 3500 
L 2356 3500 
L 2356 3053 
L 1172 3053 
L 1172 1153 
Q 1172 725 1289 603 
Q 1406 481 1766 481 
L 2356 481 
L 2356 0 
L 1766 0 
Q 1100 0 847 248 
Q 594 497 594 1153 
L 594 3053 
L 172 3053 
L 172 3500 
L 594 3500 
L 594 4494 
L 1172 4494 
z
" transform="scale(0.015625)"/>
      </defs>
      <use xlink:href="#DejaVuSans-43"/>
      <use xlink:href="#DejaVuSans-6f" transform="translate(69.824219 0)"/>
      <use xlink:href="#DejaVuSans-75" transform="translate(131.005859 0)"/>
      <use xlink:href="#DejaVuSans-6e" transform="translate(194.384766 0)"/>
      <use xlink:href="#DejaVuSans-74" transform="translate(257.763672 0)"/>
      <use xlink:href="#DejaVuSans-73" transform="translate(296.972656 0)"/>
     </g>
    </g>
   </g>
   <g id="matplotlib.axis_8">
    <g id="ytick_10">
     <g id="line2d_33">
      <g>
       <use xlink:href="#m279db0ff96" x="530.161117" y="443.431639" style="stroke: #000000; stroke-width: 0.8"/>
      </g>
     </g>
    </g>
    <g id="ytick_11">
     <g id="line2d_34">
      <g>
       <use xlink:href="#m279db0ff96" x="530.161117" y="377.659366" style="stroke: #000000; stroke-width: 0.8"/>
      </g>
     </g>
    </g>
    <g id="ytick_12">
     <g id="line2d_35">
      <g>
       <use xlink:href="#m279db0ff96" x="530.161117" y="311.887093" style="stroke: #000000; stroke-width: 0.8"/>
      </g>
     </g>
    </g>
   </g>
   <g id="patch_35">
    <path d="M 530.161117 450.72 
L 530.161117 302.88 
" style="fill: none; stroke: #000000; stroke-width: 3; stroke-linejoin: miter; stroke-linecap: square"/>
   </g>
   <g id="patch_36">
    <path d="M 655.554375 450.72 
L 655.554375 302.88 
" style="fill: none; stroke: #000000; stroke-width: 3; stroke-linejoin: miter; stroke-linecap: square"/>
   </g>
   <g id="patch_37">
    <path d="M 530.161117 450.72 
L 655.554375 450.72 
" style="fill: none; stroke: #000000; stroke-width: 3; stroke-linejoin: miter; stroke-linecap: square"/>
   </g>
   <g id="patch_38">
    <path d="M 530.161117 302.88 
L 655.554375 302.88 
" style="fill: none; stroke: #000000; stroke-width: 3; stroke-linejoin: miter; stroke-linecap: square"/>
   </g>
  </g>
 </g>
 <defs>
  <clipPath id="p9166a85dc6">
   <rect x="97.554375" y="7.2" width="413.797753" height="295.68"/>
  </clipPath>
  <clipPath id="p75564c1621">
   <rect x="97.554375" y="302.88" width="413.797753" height="147.84"/>
  </clipPath>
  <clipPath id="pd15668e867">
   <rect x="530.161117" y="7.2" width="125.393258" height="295.68"/>
  </clipPath>
  <clipPath id="p402191b89b">
   <rect x="530.161117" y="302.88" width="125.393258" height="147.84"/>
  </clipPath>
 </defs>
</svg>
