<?xml version="1.0" encoding="utf-8" standalone="no"?>
<!DOCTYPE svg PUBLIC "-//W3C//DTD SVG 1.1//EN"
  "http://www.w3.org/Graphics/SVG/1.1/DTD/svg11.dtd">
<svg xmlns:xlink="http://www.w3.org/1999/xlink" width="662.754375pt" height="509.568125pt" viewBox="0 0 662.754375 509.568125" xmlns="http://www.w3.org/2000/svg" version="1.1">
 <metadata>
  <rdf:RDF xmlns:dc="http://purl.org/dc/elements/1.1/" xmlns:cc="http://creativecommons.org/ns#" xmlns:rdf="http://www.w3.org/1999/02/22-rdf-syntax-ns#">
   <cc:Work>
    <dc:type rdf:resource="http://purl.org/dc/dcmitype/StillImage"/>
    <dc:date>2025-12-19T11:59:29.307493</dc:date>
    <dc:format>image/svg+xml</dc:format>
    <dc:creator>
     <cc:Agent>
      <dc:title>Matplotlib v3.10.0, https://matplotlib.org/</dc:title>
     </cc:Agent>
    </dc:creator>
   </cc:Work>
  </rdf:RDF>
 </metadata>
 <defs>
  <style type="text/css">*{stroke-linejoin: round; stroke-linecap: butt}</style>
 </defs>
 <g id="figure_1">
  <g id="patch_1">
   <path d="M 0 509.568125 
L 662.754375 509.568125 
L 662.754375 0 
L 0 0 
z
" style="fill: #ffffff"/>
  </g>
  <g id="axes_1">
   <g id="patch_2">
    <path d="M 97.554375 302.88 
L 511.352128 302.88 
L 511.352128 7.2 
L 97.554375 7.2 
z
" style="fill: #ffffff"/>
   </g>
   <g id="matplotlib.axis_1">
    <g id="xtick_1">
     <g id="line2d_1">
      <defs>
       <path id="m91e757233d" d="M 0 0 
L 0 3.5 
" style="stroke: #000000; stroke-width: 0.8"/>
      </defs>
      <g>
       <use xlink:href="#m91e757233d" x="116.363364" y="302.88" style="stroke: #000000; stroke-width: 0.8"/>
      </g>
     </g>
    </g>
    <g id="xtick_2">
     <g id="line2d_2">
      <g>
       <use xlink:href="#m91e757233d" x="197.127347" y="302.88" style="stroke: #000000; stroke-width: 0.8"/>
      </g>
     </g>
    </g>
    <g id="xtick_3">
     <g id="line2d_3">
      <g>
       <use xlink:href="#m91e757233d" x="277.891331" y="302.88" style="stroke: #000000; stroke-width: 0.8"/>
      </g>
     </g>
    </g>
    <g id="xtick_4">
     <g id="line2d_4">
      <g>
       <use xlink:href="#m91e757233d" x="358.655315" y="302.88" style="stroke: #000000; stroke-width: 0.8"/>
      </g>
     </g>
    </g>
    <g id="xtick_5">
     <g id="line2d_5">
      <g>
       <use xlink:href="#m91e757233d" x="439.419298" y="302.88" style="stroke: #000000; stroke-width: 0.8"/>
      </g>
     </g>
    </g>
   </g>
   <g id="matplotlib.axis_2">
    <g id="ytick_1">
     <g id="line2d_6">
      <defs>
       <path id="mc528717a41" d="M 0 0 
L -3.5 0 
" style="stroke: #000000; stroke-width: 0.8"/>
      </defs>
      <g>
       <use xlink:href="#mc528717a41" x="97.554375" y="224.179104" style="stroke: #000000; stroke-width: 0.8"/>
      </g>
     </g>
     <g id="text_1">
      <!-- −200 -->
      <g transform="translate(35.62 231.777541) scale(0.2 -0.2)">
       <defs>
        <path id="DejaVuSans-2212" d="M 678 2272 
L 4684 2272 
L 4684 1741 
L 678 1741 
L 678 2272 
z
" transform="scale(0.015625)"/>
        <path id="DejaVuSans-32" d="M 1228 531 
L 3431 531 
L 3431 0 
L 469 0 
L 469 531 
Q 828 903 1448 1529 
Q 2069 2156 2228 2338 
Q 2531 2678 2651 2914 
Q 2772 3150 2772 3378 
Q 2772 3750 2511 3984 
Q 2250 4219 1831 4219 
Q 1534 4219 1204 4116 
Q 875 4013 500 3803 
L 500 4441 
Q 881 4594 1212 4672 
Q 1544 4750 1819 4750 
Q 2544 4750 2975 4387 
Q 3406 4025 3406 3419 
Q 3406 3131 3298 2873 
Q 3191 2616 2906 2266 
Q 2828 2175 2409 1742 
Q 1991 1309 1228 531 
z
" transform="scale(0.015625)"/>
        <path id="DejaVuSans-30" d="M 2034 4250 
Q 1547 4250 1301 3770 
Q 1056 3291 1056 2328 
Q 1056 1369 1301 889 
Q 1547 409 2034 409 
Q 2525 409 2770 889 
Q 3016 1369 3016 2328 
Q 3016 3291 2770 3770 
Q 2525 4250 2034 4250 
z
M 2034 4750 
Q 2819 4750 3233 4129 
Q 3647 3509 3647 2328 
Q 3647 1150 3233 529 
Q 2819 -91 2034 -91 
Q 1250 -91 836 529 
Q 422 1150 422 2328 
Q 422 3509 836 4129 
Q 1250 4750 2034 4750 
z
" transform="scale(0.015625)"/>
       </defs>
       <use xlink:href="#DejaVuSans-2212"/>
       <use xlink:href="#DejaVuSans-32" transform="translate(83.789062 0)"/>
       <use xlink:href="#DejaVuSans-30" transform="translate(147.412109 0)"/>
       <use xlink:href="#DejaVuSans-30" transform="translate(211.035156 0)"/>
      </g>
     </g>
    </g>
    <g id="ytick_2">
     <g id="line2d_7">
      <g>
       <use xlink:href="#mc528717a41" x="97.554375" y="142.438384" style="stroke: #000000; stroke-width: 0.8"/>
      </g>
     </g>
     <g id="text_2">
      <!-- 0 -->
      <g transform="translate(77.829375 150.036822) scale(0.2 -0.2)">
       <use xlink:href="#DejaVuSans-30"/>
      </g>
     </g>
    </g>
    <g id="ytick_3">
     <g id="line2d_8">
      <g>
       <use xlink:href="#mc528717a41" x="97.554375" y="60.697665" style="stroke: #000000; stroke-width: 0.8"/>
      </g>
     </g>
     <g id="text_3">
      <!-- 200 -->
      <g transform="translate(52.379375 68.296102) scale(0.2 -0.2)">
       <use xlink:href="#DejaVuSans-32"/>
       <use xlink:href="#DejaVuSans-30" transform="translate(63.623047 0)"/>
       <use xlink:href="#DejaVuSans-30" transform="translate(127.246094 0)"/>
      </g>
     </g>
    </g>
    <g id="text_4">
     <!-- RVs ($\frac{m}{s}$) -->
     <g transform="translate(25.46 196.95) rotate(-90) scale(0.22 -0.22)">
      <defs>
       <path id="DejaVuSans-52" d="M 2841 2188 
Q 3044 2119 3236 1894 
Q 3428 1669 3622 1275 
L 4263 0 
L 3584 0 
L 2988 1197 
Q 2756 1666 2539 1819 
Q 2322 1972 1947 1972 
L 1259 1972 
L 1259 0 
L 628 0 
L 628 4666 
L 2053 4666 
Q 2853 4666 3247 4331 
Q 3641 3997 3641 3322 
Q 3641 2881 3436 2590 
Q 3231 2300 2841 2188 
z
M 1259 4147 
L 1259 2491 
L 2053 2491 
Q 2509 2491 2742 2702 
Q 2975 2913 2975 3322 
Q 2975 3731 2742 3939 
Q 2509 4147 2053 4147 
L 1259 4147 
z
" transform="scale(0.015625)"/>
       <path id="DejaVuSans-56" d="M 1831 0 
L 50 4666 
L 709 4666 
L 2188 738 
L 3669 4666 
L 4325 4666 
L 2547 0 
L 1831 0 
z
" transform="scale(0.015625)"/>
       <path id="DejaVuSans-73" d="M 2834 3397 
L 2834 2853 
Q 2591 2978 2328 3040 
Q 2066 3103 1784 3103 
Q 1356 3103 1142 2972 
Q 928 2841 928 2578 
Q 928 2378 1081 2264 
Q 1234 2150 1697 2047 
L 1894 2003 
Q 2506 1872 2764 1633 
Q 3022 1394 3022 966 
Q 3022 478 2636 193 
Q 2250 -91 1575 -91 
Q 1294 -91 989 -36 
Q 684 19 347 128 
L 347 722 
Q 666 556 975 473 
Q 1284 391 1588 391 
Q 1994 391 2212 530 
Q 2431 669 2431 922 
Q 2431 1156 2273 1281 
Q 2116 1406 1581 1522 
L 1381 1569 
Q 847 1681 609 1914 
Q 372 2147 372 2553 
Q 372 3047 722 3315 
Q 1072 3584 1716 3584 
Q 2034 3584 2315 3537 
Q 2597 3491 2834 3397 
z
" transform="scale(0.015625)"/>
       <path id="DejaVuSans-20" transform="scale(0.015625)"/>
       <path id="DejaVuSans-28" d="M 1984 4856 
Q 1566 4138 1362 3434 
Q 1159 2731 1159 2009 
Q 1159 1288 1364 580 
Q 1569 -128 1984 -844 
L 1484 -844 
Q 1016 -109 783 600 
Q 550 1309 550 2009 
Q 550 2706 781 3412 
Q 1013 4119 1484 4856 
L 1984 4856 
z
" transform="scale(0.015625)"/>
       <path id="DejaVuSans-Oblique-6d" d="M 5747 2113 
L 5338 0 
L 4763 0 
L 5166 2094 
Q 5191 2228 5203 2325 
Q 5216 2422 5216 2491 
Q 5216 2772 5059 2928 
Q 4903 3084 4622 3084 
Q 4203 3084 3875 2770 
Q 3547 2456 3450 1953 
L 3066 0 
L 2491 0 
L 2900 2094 
Q 2925 2209 2937 2307 
Q 2950 2406 2950 2484 
Q 2950 2769 2794 2926 
Q 2638 3084 2363 3084 
Q 1938 3084 1609 2770 
Q 1281 2456 1184 1953 
L 800 0 
L 225 0 
L 909 3500 
L 1484 3500 
L 1375 2956 
Q 1609 3263 1923 3423 
Q 2238 3584 2597 3584 
Q 2978 3584 3223 3384 
Q 3469 3184 3519 2828 
Q 3781 3197 4126 3390 
Q 4472 3584 4856 3584 
Q 5306 3584 5551 3325 
Q 5797 3066 5797 2591 
Q 5797 2488 5784 2364 
Q 5772 2241 5747 2113 
z
" transform="scale(0.015625)"/>
       <path id="DejaVuSans-Oblique-73" d="M 3200 3397 
L 3091 2853 
Q 2863 2978 2609 3040 
Q 2356 3103 2088 3103 
Q 1634 3103 1373 2948 
Q 1113 2794 1113 2528 
Q 1113 2219 1719 2053 
Q 1766 2041 1788 2034 
L 1972 1978 
Q 2547 1819 2739 1644 
Q 2931 1469 2931 1166 
Q 2931 609 2489 259 
Q 2047 -91 1331 -91 
Q 1053 -91 747 -37 
Q 441 16 72 128 
L 184 722 
Q 500 559 806 475 
Q 1113 391 1394 391 
Q 1816 391 2080 572 
Q 2344 753 2344 1031 
Q 2344 1331 1650 1516 
L 1591 1531 
L 1394 1581 
Q 956 1697 753 1886 
Q 550 2075 550 2369 
Q 550 2928 970 3256 
Q 1391 3584 2113 3584 
Q 2397 3584 2667 3537 
Q 2938 3491 3200 3397 
z
" transform="scale(0.015625)"/>
       <path id="DejaVuSans-29" d="M 513 4856 
L 1013 4856 
Q 1481 4119 1714 3412 
Q 1947 2706 1947 2009 
Q 1947 1309 1714 600 
Q 1481 -109 1013 -844 
L 513 -844 
Q 928 -128 1133 580 
Q 1338 1288 1338 2009 
Q 1338 2731 1133 3434 
Q 928 4138 513 4856 
z
" transform="scale(0.015625)"/>
      </defs>
      <use xlink:href="#DejaVuSans-52" transform="translate(0 0.003125)"/>
      <use xlink:href="#DejaVuSans-56" transform="translate(69.482422 0.003125)"/>
      <use xlink:href="#DejaVuSans-73" transform="translate(137.890625 0.003125)"/>
      <use xlink:href="#DejaVuSans-20" transform="translate(189.990234 0.003125)"/>
      <use xlink:href="#DejaVuSans-28" transform="translate(221.777344 0.003125)"/>
      <use xlink:href="#DejaVuSans-Oblique-6d" transform="translate(260.791016 43.8) scale(0.7)"/>
      <use xlink:href="#DejaVuSans-Oblique-73" transform="translate(276.791016 -26.65) scale(0.7)"/>
      <use xlink:href="#DejaVuSans-29" transform="translate(341.479492 0.003125)"/>
      <path d="M 260.791016 18.8 
L 260.791016 25.05 
L 328.979492 25.05 
L 328.979492 18.8 
L 260.791016 18.8 
z
"/>
     </g>
    </g>
   </g>
   <g id="line2d_9">
    <path d="M 97.554375 142.438384 
L 511.352128 142.438384 
" clip-path="url(#pd028549eac)" style="fill: none; stroke: #808080; stroke-width: 2; stroke-linecap: square"/>
   </g>
   <g id="LineCollection_1">
    <path d="M 116.363364 142.586161 
L 116.363364 112.622932 
" clip-path="url(#pd028549eac)" style="fill: none; stroke: #1f77b4; stroke-opacity: 0.4; stroke-width: 1.2"/>
    <path d="M 156.700323 266.514553 
L 156.700323 238.622471 
" clip-path="url(#pd028549eac)" style="fill: none; stroke: #1f77b4; stroke-opacity: 0.4; stroke-width: 1.2"/>
    <path d="M 160.733308 258.879261 
L 160.733308 222.121902 
" clip-path="url(#pd028549eac)" style="fill: none; stroke: #1f77b4; stroke-opacity: 0.4; stroke-width: 1.2"/>
    <path d="M 172.835454 136.029059 
L 172.835454 100.061192 
" clip-path="url(#pd028549eac)" style="fill: none; stroke: #1f77b4; stroke-opacity: 0.4; stroke-width: 1.2"/>
    <path d="M 182.341656 128.171036 
L 182.341656 93.213554 
" clip-path="url(#pd028549eac)" style="fill: none; stroke: #1f77b4; stroke-opacity: 0.4; stroke-width: 1.2"/>
    <path d="M 187.356768 87.338349 
L 187.356768 59.188774 
" clip-path="url(#pd028549eac)" style="fill: none; stroke: #1f77b4; stroke-opacity: 0.4; stroke-width: 1.2"/>
    <path d="M 188.898428 102.657211 
L 188.898428 67.328981 
" clip-path="url(#pd028549eac)" style="fill: none; stroke: #1f77b4; stroke-opacity: 0.4; stroke-width: 1.2"/>
    <path d="M 195.254628 95.206283 
L 195.254628 63.869452 
" clip-path="url(#pd028549eac)" style="fill: none; stroke: #1f77b4; stroke-opacity: 0.4; stroke-width: 1.2"/>
    <path d="M 204.224156 111.20043 
L 204.224156 71.904446 
" clip-path="url(#pd028549eac)" style="fill: none; stroke: #1f77b4; stroke-opacity: 0.4; stroke-width: 1.2"/>
    <path d="M 229.164395 94.446579 
L 229.164395 61.465437 
" clip-path="url(#pd028549eac)" style="fill: none; stroke: #1f77b4; stroke-opacity: 0.4; stroke-width: 1.2"/>
    <path d="M 243.775012 122.540059 
L 243.775012 89.814599 
" clip-path="url(#pd028549eac)" style="fill: none; stroke: #1f77b4; stroke-opacity: 0.4; stroke-width: 1.2"/>
    <path d="M 415.10113 289.44 
L 415.10113 259.219331 
" clip-path="url(#pd028549eac)" style="fill: none; stroke: #1f77b4; stroke-opacity: 0.4; stroke-width: 1.2"/>
    <path d="M 434.544891 274.174097 
L 434.544891 242.828026 
" clip-path="url(#pd028549eac)" style="fill: none; stroke: #1f77b4; stroke-opacity: 0.4; stroke-width: 1.2"/>
    <path d="M 453.122095 127.654514 
L 453.122095 99.887934 
" clip-path="url(#pd028549eac)" style="fill: none; stroke: #1f77b4; stroke-opacity: 0.4; stroke-width: 1.2"/>
    <path d="M 463.584743 58.363658 
L 463.584743 29.859632 
" clip-path="url(#pd028549eac)" style="fill: none; stroke: #1f77b4; stroke-opacity: 0.4; stroke-width: 1.2"/>
    <path d="M 468.436484 77.928536 
L 468.436484 40.355096 
" clip-path="url(#pd028549eac)" style="fill: none; stroke: #1f77b4; stroke-opacity: 0.4; stroke-width: 1.2"/>
    <path d="M 474.853289 48.05504 
L 474.853289 20.64 
" clip-path="url(#pd028549eac)" style="fill: none; stroke: #1f77b4; stroke-opacity: 0.4; stroke-width: 1.2"/>
    <path d="M 482.036377 105.541026 
L 482.036377 80.672833 
" clip-path="url(#pd028549eac)" style="fill: none; stroke: #1f77b4; stroke-opacity: 0.4; stroke-width: 1.2"/>
    <path d="M 486.055927 59.348137 
L 486.055927 27.103484 
" clip-path="url(#pd028549eac)" style="fill: none; stroke: #1f77b4; stroke-opacity: 0.4; stroke-width: 1.2"/>
    <path d="M 492.543139 86.702612 
L 492.543139 38.402273 
" clip-path="url(#pd028549eac)" style="fill: none; stroke: #1f77b4; stroke-opacity: 0.4; stroke-width: 1.2"/>
   </g>
   <g id="LineCollection_2">
    <path d="M 116.363364 138.836303 
L 116.363364 116.372789 
" clip-path="url(#pd028549eac)" style="fill: none; stroke: #1f77b4; stroke-opacity: 0.8; stroke-width: 1.2"/>
    <path d="M 156.700323 262.376451 
L 156.700323 242.760573 
" clip-path="url(#pd028549eac)" style="fill: none; stroke: #1f77b4; stroke-opacity: 0.8; stroke-width: 1.2"/>
    <path d="M 160.733308 255.975706 
L 160.733308 225.025457 
" clip-path="url(#pd028549eac)" style="fill: none; stroke: #1f77b4; stroke-opacity: 0.8; stroke-width: 1.2"/>
    <path d="M 172.835454 133.049307 
L 172.835454 103.040944 
" clip-path="url(#pd028549eac)" style="fill: none; stroke: #1f77b4; stroke-opacity: 0.8; stroke-width: 1.2"/>
    <path d="M 182.341656 125.087086 
L 182.341656 96.297504 
" clip-path="url(#pd028549eac)" style="fill: none; stroke: #1f77b4; stroke-opacity: 0.8; stroke-width: 1.2"/>
    <path d="M 187.356768 83.253718 
L 187.356768 63.273404 
" clip-path="url(#pd028549eac)" style="fill: none; stroke: #1f77b4; stroke-opacity: 0.8; stroke-width: 1.2"/>
    <path d="M 188.898428 99.612418 
L 188.898428 70.373774 
" clip-path="url(#pd028549eac)" style="fill: none; stroke: #1f77b4; stroke-opacity: 0.8; stroke-width: 1.2"/>
    <path d="M 195.254628 91.670586 
L 195.254628 67.40515 
" clip-path="url(#pd028549eac)" style="fill: none; stroke: #1f77b4; stroke-opacity: 0.8; stroke-width: 1.2"/>
    <path d="M 204.224156 108.515551 
L 204.224156 74.589325 
" clip-path="url(#pd028549eac)" style="fill: none; stroke: #1f77b4; stroke-opacity: 0.8; stroke-width: 1.2"/>
    <path d="M 229.164395 91.133357 
L 229.164395 64.778659 
" clip-path="url(#pd028549eac)" style="fill: none; stroke: #1f77b4; stroke-opacity: 0.8; stroke-width: 1.2"/>
    <path d="M 243.775012 119.194338 
L 243.775012 93.160319 
" clip-path="url(#pd028549eac)" style="fill: none; stroke: #1f77b4; stroke-opacity: 0.8; stroke-width: 1.2"/>
    <path d="M 415.10113 285.732552 
L 415.10113 262.92678 
" clip-path="url(#pd028549eac)" style="fill: none; stroke: #1f77b4; stroke-opacity: 0.8; stroke-width: 1.2"/>
    <path d="M 434.544891 270.639745 
L 434.544891 246.362378 
" clip-path="url(#pd028549eac)" style="fill: none; stroke: #1f77b4; stroke-opacity: 0.8; stroke-width: 1.2"/>
    <path d="M 453.122095 123.489729 
L 453.122095 104.052719 
" clip-path="url(#pd028549eac)" style="fill: none; stroke: #1f77b4; stroke-opacity: 0.8; stroke-width: 1.2"/>
    <path d="M 463.584743 54.349979 
L 463.584743 33.873311 
" clip-path="url(#pd028549eac)" style="fill: none; stroke: #1f77b4; stroke-opacity: 0.8; stroke-width: 1.2"/>
    <path d="M 468.436484 75.099398 
L 468.436484 43.184233 
" clip-path="url(#pd028549eac)" style="fill: none; stroke: #1f77b4; stroke-opacity: 0.8; stroke-width: 1.2"/>
    <path d="M 474.853289 43.813232 
L 474.853289 24.881808 
" clip-path="url(#pd028549eac)" style="fill: none; stroke: #1f77b4; stroke-opacity: 0.8; stroke-width: 1.2"/>
    <path d="M 482.036377 100.610953 
L 482.036377 85.602907 
" clip-path="url(#pd028549eac)" style="fill: none; stroke: #1f77b4; stroke-opacity: 0.8; stroke-width: 1.2"/>
    <path d="M 486.055927 55.939308 
L 486.055927 30.512313 
" clip-path="url(#pd028549eac)" style="fill: none; stroke: #1f77b4; stroke-opacity: 0.8; stroke-width: 1.2"/>
    <path d="M 492.543139 84.573666 
L 492.543139 40.531219 
" clip-path="url(#pd028549eac)" style="fill: none; stroke: #1f77b4; stroke-opacity: 0.8; stroke-width: 1.2"/>
   </g>
   <g id="line2d_10">
    <path d="M 116.363364 145.154046 
L 119.222902 157.19056 
L 122.157691 170.539579 
L 125.242982 185.643429 
L 128.629278 203.368482 
L 133.219589 228.717083 
L 138.110904 255.460287 
L 140.443685 266.974154 
L 142.174459 274.46928 
L 143.604228 279.733063 
L 144.808244 283.363242 
L 145.786507 285.688179 
L 146.689519 287.282493 
L 147.442029 288.174883 
L 148.044037 288.587433 
L 148.570794 288.720276 
L 149.097551 288.634334 
L 149.624308 288.325022 
L 150.226316 287.69355 
L 150.903575 286.6248 
L 151.656085 284.990508 
L 152.483846 282.65298 
L 153.462109 279.176805 
L 154.590874 274.246665 
L 155.870142 267.558547 
L 157.375162 258.377206 
L 159.181186 245.853638 
L 161.589218 227.444354 
L 169.565824 165.210822 
L 172.049108 148.19201 
L 174.306638 134.201049 
L 176.488917 122.058724 
L 178.595945 111.600031 
L 180.627722 102.638494 
L 182.584248 94.989096 
L 184.540775 88.235649 
L 186.42205 82.525404 
L 188.303325 77.525399 
L 190.109349 73.343422 
L 191.915373 69.721764 
L 193.646146 66.738948 
L 195.376919 64.200373 
L 197.032441 62.160375 
L 198.687964 60.476014 
L 200.268235 59.180435 
L 201.848506 58.17291 
L 203.353526 57.46749 
L 204.858546 56.998222 
L 206.363566 56.754752 
L 207.868586 56.727853 
L 209.448857 56.923765 
L 211.029128 57.34115 
L 212.68465 58.008143 
L 214.415424 58.949311 
L 216.221448 60.190094 
L 218.102723 61.757118 
L 220.059249 63.678566 
L 222.091026 65.98463 
L 224.273305 68.811532 
L 226.530835 72.117081 
L 228.863617 75.942655 
L 231.271649 80.334738 
L 233.754932 85.345925 
L 236.238215 90.860874 
L 238.796749 97.089217 
L 241.430535 104.104934 
L 244.06432 111.763405 
L 246.773356 120.346434 
L 249.482392 129.683445 
L 252.266679 140.1062 
L 255.050966 151.404178 
L 257.910505 163.946592 
L 260.920545 178.181518 
L 264.156338 194.608223 
L 267.918888 214.924124 
L 276.196499 260.110741 
L 278.228276 269.73767 
L 279.883798 276.548137 
L 281.238316 281.212285 
L 282.367081 284.34718 
L 283.345344 286.434097 
L 284.173105 287.698445 
L 284.850365 288.367574 
L 285.452373 288.673058 
L 285.97913 288.709433 
L 286.505887 288.524862 
L 287.032644 288.115225 
L 287.634652 287.367658 
L 288.311911 286.16742 
L 289.064421 284.387325 
L 289.967433 281.637295 
L 290.945696 277.922556 
L 292.074461 272.733834 
L 293.353728 265.781807 
L 294.858748 256.338864 
L 296.740023 243.02197 
L 299.373809 222.598053 
L 305.995897 170.620482 
L 308.554431 152.615505 
L 310.887212 137.741404 
L 313.069492 125.229745 
L 315.17652 114.425514 
L 317.208297 105.148042 
L 319.164823 97.213631 
L 321.121349 90.195182 
L 323.002624 84.248949 
L 324.883899 79.030697 
L 326.689923 74.654893 
L 328.495948 70.85364 
L 330.226721 67.710959 
L 331.957494 65.023433 
L 333.613016 62.850219 
L 335.268538 61.04082 
L 336.848809 59.632766 
L 338.42908 58.518809 
L 340.009351 57.683396 
L 341.514371 57.133963 
L 343.019392 56.813765 
L 344.524412 56.713196 
L 346.104683 56.834657 
L 347.684954 57.180186 
L 349.340476 57.774298 
L 351.071249 58.641483 
L 352.877273 59.80704 
L 354.758548 61.29738 
L 356.715075 63.140404 
L 358.746852 65.365936 
L 360.85388 68.006248 
L 363.036159 71.096654 
L 365.293689 74.676214 
L 367.62647 78.788528 
L 370.034502 83.482653 
L 372.517786 88.814122 
L 375.07632 94.84607 
L 377.634854 101.447372 
L 380.268639 108.865336 
L 382.902424 116.946819 
L 385.611461 125.988201 
L 388.320497 135.807527 
L 391.104784 146.749163 
L 393.964322 158.916439 
L 396.899111 172.400207 
L 399.984403 187.638971 
L 403.445949 205.896248 
L 408.563017 234.274697 
L 412.626571 256.322821 
L 414.884102 267.395392 
L 416.614875 274.832907 
L 418.044644 280.035756 
L 419.24866 283.605046 
L 420.226923 285.874242 
L 421.054684 287.305764 
L 421.807194 288.189416 
L 422.409202 288.59466 
L 422.935959 288.720915 
L 423.462716 288.628229 
L 423.989473 288.31205 
L 424.591481 287.672623 
L 425.26874 286.594851 
L 426.02125 284.950539 
L 426.849011 282.602127 
L 427.827275 279.113478 
L 428.95604 274.169768 
L 430.235307 267.46774 
L 431.740327 258.272526 
L 433.546351 245.736382 
L 435.954383 227.317475 
L 443.855739 165.636104 
L 446.339022 148.578309 
L 448.596552 134.549375 
L 450.778831 122.370318 
L 452.885859 111.877384 
L 454.917636 102.884611 
L 456.874163 95.207075 
L 458.830689 88.42749 
L 460.711964 82.693981 
L 462.593239 77.672468 
L 464.399263 73.47139 
L 466.205287 69.832033 
L 467.93606 66.833459 
L 469.666833 64.280198 
L 471.322356 62.22706 
L 472.977878 60.530361 
L 474.558149 59.223679 
L 476.13842 58.205642 
L 477.64344 57.490704 
L 479.14846 57.012351 
L 480.65348 56.76018 
L 482.1585 56.724924 
L 483.738771 56.912385 
L 485.319043 57.321608 
L 486.974565 57.980319 
L 488.705338 58.913075 
L 490.511362 60.145299 
L 492.392637 61.703591 
L 492.543139 61.840201 
L 492.543139 61.840201 
" clip-path="url(#pd028549eac)" style="fill: none; stroke: #000000; stroke-linecap: square"/>
   </g>
   <g id="line2d_11">
    <defs>
     <path id="m48aa89a77c" d="M 0 4 
C 1.060812 4 2.078319 3.578535 2.828427 2.828427 
C 3.578535 2.078319 4 1.060812 4 0 
C 4 -1.060812 3.578535 -2.078319 2.828427 -2.828427 
C 2.078319 -3.578535 1.060812 -4 0 -4 
C -1.060812 -4 -2.078319 -3.578535 -2.828427 -2.828427 
C -3.578535 -2.078319 -4 -1.060812 -4 0 
C -4 1.060812 -3.578535 2.078319 -2.828427 2.828427 
C -2.078319 3.578535 -1.060812 4 0 4 
z
" style="stroke: #000000; stroke-opacity: 0.4"/>
    </defs>
    <g clip-path="url(#pd028549eac)">
     <use xlink:href="#m48aa89a77c" x="116.363364" y="127.604546" style="fill: #1f77b4; fill-opacity: 0.4; stroke: #000000; stroke-opacity: 0.4"/>
     <use xlink:href="#m48aa89a77c" x="156.700323" y="252.568512" style="fill: #1f77b4; fill-opacity: 0.4; stroke: #000000; stroke-opacity: 0.4"/>
     <use xlink:href="#m48aa89a77c" x="160.733308" y="240.500582" style="fill: #1f77b4; fill-opacity: 0.4; stroke: #000000; stroke-opacity: 0.4"/>
     <use xlink:href="#m48aa89a77c" x="172.835454" y="118.045126" style="fill: #1f77b4; fill-opacity: 0.4; stroke: #000000; stroke-opacity: 0.4"/>
     <use xlink:href="#m48aa89a77c" x="182.341656" y="110.692295" style="fill: #1f77b4; fill-opacity: 0.4; stroke: #000000; stroke-opacity: 0.4"/>
     <use xlink:href="#m48aa89a77c" x="187.356768" y="73.263561" style="fill: #1f77b4; fill-opacity: 0.4; stroke: #000000; stroke-opacity: 0.4"/>
     <use xlink:href="#m48aa89a77c" x="188.898428" y="84.993096" style="fill: #1f77b4; fill-opacity: 0.4; stroke: #000000; stroke-opacity: 0.4"/>
     <use xlink:href="#m48aa89a77c" x="195.254628" y="79.537868" style="fill: #1f77b4; fill-opacity: 0.4; stroke: #000000; stroke-opacity: 0.4"/>
     <use xlink:href="#m48aa89a77c" x="204.224156" y="91.552438" style="fill: #1f77b4; fill-opacity: 0.4; stroke: #000000; stroke-opacity: 0.4"/>
     <use xlink:href="#m48aa89a77c" x="229.164395" y="77.956008" style="fill: #1f77b4; fill-opacity: 0.4; stroke: #000000; stroke-opacity: 0.4"/>
     <use xlink:href="#m48aa89a77c" x="243.775012" y="106.177329" style="fill: #1f77b4; fill-opacity: 0.4; stroke: #000000; stroke-opacity: 0.4"/>
     <use xlink:href="#m48aa89a77c" x="415.10113" y="274.329666" style="fill: #1f77b4; fill-opacity: 0.4; stroke: #000000; stroke-opacity: 0.4"/>
     <use xlink:href="#m48aa89a77c" x="434.544891" y="258.501062" style="fill: #1f77b4; fill-opacity: 0.4; stroke: #000000; stroke-opacity: 0.4"/>
     <use xlink:href="#m48aa89a77c" x="453.122095" y="113.771224" style="fill: #1f77b4; fill-opacity: 0.4; stroke: #000000; stroke-opacity: 0.4"/>
     <use xlink:href="#m48aa89a77c" x="463.584743" y="44.111645" style="fill: #1f77b4; fill-opacity: 0.4; stroke: #000000; stroke-opacity: 0.4"/>
     <use xlink:href="#m48aa89a77c" x="468.436484" y="59.141816" style="fill: #1f77b4; fill-opacity: 0.4; stroke: #000000; stroke-opacity: 0.4"/>
     <use xlink:href="#m48aa89a77c" x="474.853289" y="34.34752" style="fill: #1f77b4; fill-opacity: 0.4; stroke: #000000; stroke-opacity: 0.4"/>
     <use xlink:href="#m48aa89a77c" x="482.036377" y="93.10693" style="fill: #1f77b4; fill-opacity: 0.4; stroke: #000000; stroke-opacity: 0.4"/>
     <use xlink:href="#m48aa89a77c" x="486.055927" y="43.22581" style="fill: #1f77b4; fill-opacity: 0.4; stroke: #000000; stroke-opacity: 0.4"/>
     <use xlink:href="#m48aa89a77c" x="492.543139" y="62.552443" style="fill: #1f77b4; fill-opacity: 0.4; stroke: #000000; stroke-opacity: 0.4"/>
    </g>
   </g>
   <g id="line2d_12">
    <defs>
     <path id="m7d6a68e8d3" d="M 0 4 
C 1.060812 4 2.078319 3.578535 2.828427 2.828427 
C 3.578535 2.078319 4 1.060812 4 0 
C 4 -1.060812 3.578535 -2.078319 2.828427 -2.828427 
C 2.078319 -3.578535 1.060812 -4 0 -4 
C -1.060812 -4 -2.078319 -3.578535 -2.828427 -2.828427 
C -3.578535 -2.078319 -4 -1.060812 -4 0 
C -4 1.060812 -3.578535 2.078319 -2.828427 2.828427 
C -2.078319 3.578535 -1.060812 4 0 4 
z
" style="stroke: #000000; stroke-opacity: 0.8"/>
    </defs>
    <g clip-path="url(#pd028549eac)">
     <use xlink:href="#m7d6a68e8d3" x="116.363364" y="127.604546" style="fill: #1f77b4; fill-opacity: 0.8; stroke: #000000; stroke-opacity: 0.8"/>
     <use xlink:href="#m7d6a68e8d3" x="156.700323" y="252.568512" style="fill: #1f77b4; fill-opacity: 0.8; stroke: #000000; stroke-opacity: 0.8"/>
     <use xlink:href="#m7d6a68e8d3" x="160.733308" y="240.500582" style="fill: #1f77b4; fill-opacity: 0.8; stroke: #000000; stroke-opacity: 0.8"/>
     <use xlink:href="#m7d6a68e8d3" x="172.835454" y="118.045126" style="fill: #1f77b4; fill-opacity: 0.8; stroke: #000000; stroke-opacity: 0.8"/>
     <use xlink:href="#m7d6a68e8d3" x="182.341656" y="110.692295" style="fill: #1f77b4; fill-opacity: 0.8; stroke: #000000; stroke-opacity: 0.8"/>
     <use xlink:href="#m7d6a68e8d3" x="187.356768" y="73.263561" style="fill: #1f77b4; fill-opacity: 0.8; stroke: #000000; stroke-opacity: 0.8"/>
     <use xlink:href="#m7d6a68e8d3" x="188.898428" y="84.993096" style="fill: #1f77b4; fill-opacity: 0.8; stroke: #000000; stroke-opacity: 0.8"/>
     <use xlink:href="#m7d6a68e8d3" x="195.254628" y="79.537868" style="fill: #1f77b4; fill-opacity: 0.8; stroke: #000000; stroke-opacity: 0.8"/>
     <use xlink:href="#m7d6a68e8d3" x="204.224156" y="91.552438" style="fill: #1f77b4; fill-opacity: 0.8; stroke: #000000; stroke-opacity: 0.8"/>
     <use xlink:href="#m7d6a68e8d3" x="229.164395" y="77.956008" style="fill: #1f77b4; fill-opacity: 0.8; stroke: #000000; stroke-opacity: 0.8"/>
     <use xlink:href="#m7d6a68e8d3" x="243.775012" y="106.177329" style="fill: #1f77b4; fill-opacity: 0.8; stroke: #000000; stroke-opacity: 0.8"/>
     <use xlink:href="#m7d6a68e8d3" x="415.10113" y="274.329666" style="fill: #1f77b4; fill-opacity: 0.8; stroke: #000000; stroke-opacity: 0.8"/>
     <use xlink:href="#m7d6a68e8d3" x="434.544891" y="258.501062" style="fill: #1f77b4; fill-opacity: 0.8; stroke: #000000; stroke-opacity: 0.8"/>
     <use xlink:href="#m7d6a68e8d3" x="453.122095" y="113.771224" style="fill: #1f77b4; fill-opacity: 0.8; stroke: #000000; stroke-opacity: 0.8"/>
     <use xlink:href="#m7d6a68e8d3" x="463.584743" y="44.111645" style="fill: #1f77b4; fill-opacity: 0.8; stroke: #000000; stroke-opacity: 0.8"/>
     <use xlink:href="#m7d6a68e8d3" x="468.436484" y="59.141816" style="fill: #1f77b4; fill-opacity: 0.8; stroke: #000000; stroke-opacity: 0.8"/>
     <use xlink:href="#m7d6a68e8d3" x="474.853289" y="34.34752" style="fill: #1f77b4; fill-opacity: 0.8; stroke: #000000; stroke-opacity: 0.8"/>
     <use xlink:href="#m7d6a68e8d3" x="482.036377" y="93.10693" style="fill: #1f77b4; fill-opacity: 0.8; stroke: #000000; stroke-opacity: 0.8"/>
     <use xlink:href="#m7d6a68e8d3" x="486.055927" y="43.22581" style="fill: #1f77b4; fill-opacity: 0.8; stroke: #000000; stroke-opacity: 0.8"/>
     <use xlink:href="#m7d6a68e8d3" x="492.543139" y="62.552443" style="fill: #1f77b4; fill-opacity: 0.8; stroke: #000000; stroke-opacity: 0.8"/>
    </g>
   </g>
   <g id="patch_3">
    <path d="M 97.554375 302.88 
L 97.554375 7.2 
" style="fill: none; stroke: #000000; stroke-width: 3; stroke-linejoin: miter; stroke-linecap: square"/>
   </g>
   <g id="patch_4">
    <path d="M 511.352128 302.88 
L 511.352128 7.2 
" style="fill: none; stroke: #000000; stroke-width: 3; stroke-linejoin: miter; stroke-linecap: square"/>
   </g>
   <g id="patch_5">
    <path d="M 97.554375 302.88 
L 511.352128 302.88 
" style="fill: none; stroke: #000000; stroke-width: 3; stroke-linejoin: miter; stroke-linecap: square"/>
   </g>
   <g id="patch_6">
    <path d="M 97.554375 7.2 
L 511.352128 7.2 
" style="fill: none; stroke: #000000; stroke-width: 3; stroke-linejoin: miter; stroke-linecap: square"/>
   </g>
   <g id="legend_1">
    <g id="patch_7">
     <path d="M 107.354375 38.949375 
L 203.25 38.949375 
Q 206.05 38.949375 206.05 36.149375 
L 206.05 17 
Q 206.05 14.2 203.25 14.2 
L 107.354375 14.2 
Q 104.554375 14.2 104.554375 17 
L 104.554375 36.149375 
Q 104.554375 38.949375 107.354375 38.949375 
z
" style="fill: #ffffff; opacity: 0.8; stroke: #cccccc; stroke-linejoin: miter"/>
    </g>
    <g id="LineCollection_3">
     <path d="M 124.154375 32.537812 
L 124.154375 18.537812 
" style="fill: none; stroke: #1f77b4; stroke-opacity: 0.8; stroke-width: 1.2"/>
    </g>
    <g id="line2d_13"/>
    <g id="line2d_14">
     <g>
      <use xlink:href="#m7d6a68e8d3" x="124.154375" y="25.537812" style="fill: #1f77b4; fill-opacity: 0.8; stroke: #000000; stroke-opacity: 0.8"/>
     </g>
    </g>
    <g id="text_5">
     <!-- CRIRES -->
     <g transform="translate(149.354375 30.437812) scale(0.14 -0.14)">
      <defs>
       <path id="DejaVuSans-43" d="M 4122 4306 
L 4122 3641 
Q 3803 3938 3442 4084 
Q 3081 4231 2675 4231 
Q 1875 4231 1450 3742 
Q 1025 3253 1025 2328 
Q 1025 1406 1450 917 
Q 1875 428 2675 428 
Q 3081 428 3442 575 
Q 3803 722 4122 1019 
L 4122 359 
Q 3791 134 3420 21 
Q 3050 -91 2638 -91 
Q 1578 -91 968 557 
Q 359 1206 359 2328 
Q 359 3453 968 4101 
Q 1578 4750 2638 4750 
Q 3056 4750 3426 4639 
Q 3797 4528 4122 4306 
z
" transform="scale(0.015625)"/>
       <path id="DejaVuSans-49" d="M 628 4666 
L 1259 4666 
L 1259 0 
L 628 0 
L 628 4666 
z
" transform="scale(0.015625)"/>
       <path id="DejaVuSans-45" d="M 628 4666 
L 3578 4666 
L 3578 4134 
L 1259 4134 
L 1259 2753 
L 3481 2753 
L 3481 2222 
L 1259 2222 
L 1259 531 
L 3634 531 
L 3634 0 
L 628 0 
L 628 4666 
z
" transform="scale(0.015625)"/>
       <path id="DejaVuSans-53" d="M 3425 4513 
L 3425 3897 
Q 3066 4069 2747 4153 
Q 2428 4238 2131 4238 
Q 1616 4238 1336 4038 
Q 1056 3838 1056 3469 
Q 1056 3159 1242 3001 
Q 1428 2844 1947 2747 
L 2328 2669 
Q 3034 2534 3370 2195 
Q 3706 1856 3706 1288 
Q 3706 609 3251 259 
Q 2797 -91 1919 -91 
Q 1588 -91 1214 -16 
Q 841 59 441 206 
L 441 856 
Q 825 641 1194 531 
Q 1563 422 1919 422 
Q 2459 422 2753 634 
Q 3047 847 3047 1241 
Q 3047 1584 2836 1778 
Q 2625 1972 2144 2069 
L 1759 2144 
Q 1053 2284 737 2584 
Q 422 2884 422 3419 
Q 422 4038 858 4394 
Q 1294 4750 2059 4750 
Q 2388 4750 2728 4690 
Q 3069 4631 3425 4513 
z
" transform="scale(0.015625)"/>
      </defs>
      <use xlink:href="#DejaVuSans-43"/>
      <use xlink:href="#DejaVuSans-52" transform="translate(69.824219 0)"/>
      <use xlink:href="#DejaVuSans-49" transform="translate(139.306641 0)"/>
      <use xlink:href="#DejaVuSans-52" transform="translate(168.798828 0)"/>
      <use xlink:href="#DejaVuSans-45" transform="translate(238.28125 0)"/>
      <use xlink:href="#DejaVuSans-53" transform="translate(301.464844 0)"/>
     </g>
    </g>
   </g>
  </g>
  <g id="axes_2">
   <g id="patch_8">
    <path d="M 97.554375 450.72 
L 511.352128 450.72 
L 511.352128 302.88 
L 97.554375 302.88 
z
" style="fill: #ffffff"/>
   </g>
   <g id="matplotlib.axis_3">
    <g id="xtick_6">
     <g id="line2d_15">
      <g>
       <use xlink:href="#m91e757233d" x="116.363364" y="450.72" style="stroke: #000000; stroke-width: 0.8"/>
      </g>
     </g>
     <g id="text_6">
      <!-- 0 -->
      <g transform="translate(110.000864 472.916875) scale(0.2 -0.2)">
       <use xlink:href="#DejaVuSans-30"/>
      </g>
     </g>
    </g>
    <g id="xtick_7">
     <g id="line2d_16">
      <g>
       <use xlink:href="#m91e757233d" x="197.127347" y="450.72" style="stroke: #000000; stroke-width: 0.8"/>
      </g>
     </g>
     <g id="text_7">
      <!-- 100 -->
      <g transform="translate(178.039847 472.916875) scale(0.2 -0.2)">
       <defs>
        <path id="DejaVuSans-31" d="M 794 531 
L 1825 531 
L 1825 4091 
L 703 3866 
L 703 4441 
L 1819 4666 
L 2450 4666 
L 2450 531 
L 3481 531 
L 3481 0 
L 794 0 
L 794 531 
z
" transform="scale(0.015625)"/>
       </defs>
       <use xlink:href="#DejaVuSans-31"/>
       <use xlink:href="#DejaVuSans-30" transform="translate(63.623047 0)"/>
       <use xlink:href="#DejaVuSans-30" transform="translate(127.246094 0)"/>
      </g>
     </g>
    </g>
    <g id="xtick_8">
     <g id="line2d_17">
      <g>
       <use xlink:href="#m91e757233d" x="277.891331" y="450.72" style="stroke: #000000; stroke-width: 0.8"/>
      </g>
     </g>
     <g id="text_8">
      <!-- 200 -->
      <g transform="translate(258.803831 472.916875) scale(0.2 -0.2)">
       <use xlink:href="#DejaVuSans-32"/>
       <use xlink:href="#DejaVuSans-30" transform="translate(63.623047 0)"/>
       <use xlink:href="#DejaVuSans-30" transform="translate(127.246094 0)"/>
      </g>
     </g>
    </g>
    <g id="xtick_9">
     <g id="line2d_18">
      <g>
       <use xlink:href="#m91e757233d" x="358.655315" y="450.72" style="stroke: #000000; stroke-width: 0.8"/>
      </g>
     </g>
     <g id="text_9">
      <!-- 300 -->
      <g transform="translate(339.567815 472.916875) scale(0.2 -0.2)">
       <defs>
        <path id="DejaVuSans-33" d="M 2597 2516 
Q 3050 2419 3304 2112 
Q 3559 1806 3559 1356 
Q 3559 666 3084 287 
Q 2609 -91 1734 -91 
Q 1441 -91 1130 -33 
Q 819 25 488 141 
L 488 750 
Q 750 597 1062 519 
Q 1375 441 1716 441 
Q 2309 441 2620 675 
Q 2931 909 2931 1356 
Q 2931 1769 2642 2001 
Q 2353 2234 1838 2234 
L 1294 2234 
L 1294 2753 
L 1863 2753 
Q 2328 2753 2575 2939 
Q 2822 3125 2822 3475 
Q 2822 3834 2567 4026 
Q 2313 4219 1838 4219 
Q 1578 4219 1281 4162 
Q 984 4106 628 3988 
L 628 4550 
Q 988 4650 1302 4700 
Q 1616 4750 1894 4750 
Q 2613 4750 3031 4423 
Q 3450 4097 3450 3541 
Q 3450 3153 3228 2886 
Q 3006 2619 2597 2516 
z
" transform="scale(0.015625)"/>
       </defs>
       <use xlink:href="#DejaVuSans-33"/>
       <use xlink:href="#DejaVuSans-30" transform="translate(63.623047 0)"/>
       <use xlink:href="#DejaVuSans-30" transform="translate(127.246094 0)"/>
      </g>
     </g>
    </g>
    <g id="xtick_10">
     <g id="line2d_19">
      <g>
       <use xlink:href="#m91e757233d" x="439.419298" y="450.72" style="stroke: #000000; stroke-width: 0.8"/>
      </g>
     </g>
     <g id="text_10">
      <!-- 400 -->
      <g transform="translate(420.331798 472.916875) scale(0.2 -0.2)">
       <defs>
        <path id="DejaVuSans-34" d="M 2419 4116 
L 825 1625 
L 2419 1625 
L 2419 4116 
z
M 2253 4666 
L 3047 4666 
L 3047 1625 
L 3713 1625 
L 3713 1100 
L 3047 1100 
L 3047 0 
L 2419 0 
L 2419 1100 
L 313 1100 
L 313 1709 
L 2253 4666 
z
" transform="scale(0.015625)"/>
       </defs>
       <use xlink:href="#DejaVuSans-34"/>
       <use xlink:href="#DejaVuSans-30" transform="translate(63.623047 0)"/>
       <use xlink:href="#DejaVuSans-30" transform="translate(127.246094 0)"/>
      </g>
     </g>
    </g>
    <g id="text_11">
     <!-- BJD (days) + 2460230 -->
     <g transform="translate(181.945908 497.792812) scale(0.22 -0.22)">
      <defs>
       <path id="DejaVuSans-42" d="M 1259 2228 
L 1259 519 
L 2272 519 
Q 2781 519 3026 730 
Q 3272 941 3272 1375 
Q 3272 1813 3026 2020 
Q 2781 2228 2272 2228 
L 1259 2228 
z
M 1259 4147 
L 1259 2741 
L 2194 2741 
Q 2656 2741 2882 2914 
Q 3109 3088 3109 3444 
Q 3109 3797 2882 3972 
Q 2656 4147 2194 4147 
L 1259 4147 
z
M 628 4666 
L 2241 4666 
Q 2963 4666 3353 4366 
Q 3744 4066 3744 3513 
Q 3744 3084 3544 2831 
Q 3344 2578 2956 2516 
Q 3422 2416 3680 2098 
Q 3938 1781 3938 1306 
Q 3938 681 3513 340 
Q 3088 0 2303 0 
L 628 0 
L 628 4666 
z
" transform="scale(0.015625)"/>
       <path id="DejaVuSans-4a" d="M 628 4666 
L 1259 4666 
L 1259 325 
Q 1259 -519 939 -900 
Q 619 -1281 -91 -1281 
L -331 -1281 
L -331 -750 
L -134 -750 
Q 284 -750 456 -515 
Q 628 -281 628 325 
L 628 4666 
z
" transform="scale(0.015625)"/>
       <path id="DejaVuSans-44" d="M 1259 4147 
L 1259 519 
L 2022 519 
Q 2988 519 3436 956 
Q 3884 1394 3884 2338 
Q 3884 3275 3436 3711 
Q 2988 4147 2022 4147 
L 1259 4147 
z
M 628 4666 
L 1925 4666 
Q 3281 4666 3915 4102 
Q 4550 3538 4550 2338 
Q 4550 1131 3912 565 
Q 3275 0 1925 0 
L 628 0 
L 628 4666 
z
" transform="scale(0.015625)"/>
       <path id="DejaVuSans-64" d="M 2906 2969 
L 2906 4863 
L 3481 4863 
L 3481 0 
L 2906 0 
L 2906 525 
Q 2725 213 2448 61 
Q 2172 -91 1784 -91 
Q 1150 -91 751 415 
Q 353 922 353 1747 
Q 353 2572 751 3078 
Q 1150 3584 1784 3584 
Q 2172 3584 2448 3432 
Q 2725 3281 2906 2969 
z
M 947 1747 
Q 947 1113 1208 752 
Q 1469 391 1925 391 
Q 2381 391 2643 752 
Q 2906 1113 2906 1747 
Q 2906 2381 2643 2742 
Q 2381 3103 1925 3103 
Q 1469 3103 1208 2742 
Q 947 2381 947 1747 
z
" transform="scale(0.015625)"/>
       <path id="DejaVuSans-61" d="M 2194 1759 
Q 1497 1759 1228 1600 
Q 959 1441 959 1056 
Q 959 750 1161 570 
Q 1363 391 1709 391 
Q 2188 391 2477 730 
Q 2766 1069 2766 1631 
L 2766 1759 
L 2194 1759 
z
M 3341 1997 
L 3341 0 
L 2766 0 
L 2766 531 
Q 2569 213 2275 61 
Q 1981 -91 1556 -91 
Q 1019 -91 701 211 
Q 384 513 384 1019 
Q 384 1609 779 1909 
Q 1175 2209 1959 2209 
L 2766 2209 
L 2766 2266 
Q 2766 2663 2505 2880 
Q 2244 3097 1772 3097 
Q 1472 3097 1187 3025 
Q 903 2953 641 2809 
L 641 3341 
Q 956 3463 1253 3523 
Q 1550 3584 1831 3584 
Q 2591 3584 2966 3190 
Q 3341 2797 3341 1997 
z
" transform="scale(0.015625)"/>
       <path id="DejaVuSans-79" d="M 2059 -325 
Q 1816 -950 1584 -1140 
Q 1353 -1331 966 -1331 
L 506 -1331 
L 506 -850 
L 844 -850 
Q 1081 -850 1212 -737 
Q 1344 -625 1503 -206 
L 1606 56 
L 191 3500 
L 800 3500 
L 1894 763 
L 2988 3500 
L 3597 3500 
L 2059 -325 
z
" transform="scale(0.015625)"/>
       <path id="DejaVuSans-2b" d="M 2944 4013 
L 2944 2272 
L 4684 2272 
L 4684 1741 
L 2944 1741 
L 2944 0 
L 2419 0 
L 2419 1741 
L 678 1741 
L 678 2272 
L 2419 2272 
L 2419 4013 
L 2944 4013 
z
" transform="scale(0.015625)"/>
       <path id="DejaVuSans-36" d="M 2113 2584 
Q 1688 2584 1439 2293 
Q 1191 2003 1191 1497 
Q 1191 994 1439 701 
Q 1688 409 2113 409 
Q 2538 409 2786 701 
Q 3034 994 3034 1497 
Q 3034 2003 2786 2293 
Q 2538 2584 2113 2584 
z
M 3366 4563 
L 3366 3988 
Q 3128 4100 2886 4159 
Q 2644 4219 2406 4219 
Q 1781 4219 1451 3797 
Q 1122 3375 1075 2522 
Q 1259 2794 1537 2939 
Q 1816 3084 2150 3084 
Q 2853 3084 3261 2657 
Q 3669 2231 3669 1497 
Q 3669 778 3244 343 
Q 2819 -91 2113 -91 
Q 1303 -91 875 529 
Q 447 1150 447 2328 
Q 447 3434 972 4092 
Q 1497 4750 2381 4750 
Q 2619 4750 2861 4703 
Q 3103 4656 3366 4563 
z
" transform="scale(0.015625)"/>
      </defs>
      <use xlink:href="#DejaVuSans-42"/>
      <use xlink:href="#DejaVuSans-4a" transform="translate(68.603516 0)"/>
      <use xlink:href="#DejaVuSans-44" transform="translate(98.095703 0)"/>
      <use xlink:href="#DejaVuSans-20" transform="translate(175.097656 0)"/>
      <use xlink:href="#DejaVuSans-28" transform="translate(206.884766 0)"/>
      <use xlink:href="#DejaVuSans-64" transform="translate(245.898438 0)"/>
      <use xlink:href="#DejaVuSans-61" transform="translate(309.375 0)"/>
      <use xlink:href="#DejaVuSans-79" transform="translate(370.654297 0)"/>
      <use xlink:href="#DejaVuSans-73" transform="translate(429.833984 0)"/>
      <use xlink:href="#DejaVuSans-29" transform="translate(481.933594 0)"/>
      <use xlink:href="#DejaVuSans-20" transform="translate(520.947266 0)"/>
      <use xlink:href="#DejaVuSans-2b" transform="translate(552.734375 0)"/>
      <use xlink:href="#DejaVuSans-20" transform="translate(636.523438 0)"/>
      <use xlink:href="#DejaVuSans-32" transform="translate(668.310547 0)"/>
      <use xlink:href="#DejaVuSans-34" transform="translate(731.933594 0)"/>
      <use xlink:href="#DejaVuSans-36" transform="translate(795.556641 0)"/>
      <use xlink:href="#DejaVuSans-30" transform="translate(859.179688 0)"/>
      <use xlink:href="#DejaVuSans-32" transform="translate(922.802734 0)"/>
      <use xlink:href="#DejaVuSans-33" transform="translate(986.425781 0)"/>
      <use xlink:href="#DejaVuSans-30" transform="translate(1050.048828 0)"/>
     </g>
    </g>
   </g>
   <g id="matplotlib.axis_4">
    <g id="ytick_4">
     <g id="line2d_20">
      <g>
       <use xlink:href="#mc528717a41" x="97.554375" y="426.215253" style="stroke: #000000; stroke-width: 0.8"/>
      </g>
     </g>
     <g id="text_12">
      <!-- −100 -->
      <g transform="translate(35.62 433.813691) scale(0.2 -0.2)">
       <use xlink:href="#DejaVuSans-2212"/>
       <use xlink:href="#DejaVuSans-31" transform="translate(83.789062 0)"/>
       <use xlink:href="#DejaVuSans-30" transform="translate(147.412109 0)"/>
       <use xlink:href="#DejaVuSans-30" transform="translate(211.035156 0)"/>
      </g>
     </g>
    </g>
    <g id="ytick_5">
     <g id="line2d_21">
      <g>
       <use xlink:href="#mc528717a41" x="97.554375" y="370.991051" style="stroke: #000000; stroke-width: 0.8"/>
      </g>
     </g>
     <g id="text_13">
      <!-- 0 -->
      <g transform="translate(77.829375 378.589488) scale(0.2 -0.2)">
       <use xlink:href="#DejaVuSans-30"/>
      </g>
     </g>
    </g>
    <g id="ytick_6">
     <g id="line2d_22">
      <g>
       <use xlink:href="#mc528717a41" x="97.554375" y="315.766849" style="stroke: #000000; stroke-width: 0.8"/>
      </g>
     </g>
     <g id="text_14">
      <!-- 100 -->
      <g transform="translate(52.379375 323.365286) scale(0.2 -0.2)">
       <use xlink:href="#DejaVuSans-31"/>
       <use xlink:href="#DejaVuSans-30" transform="translate(63.623047 0)"/>
       <use xlink:href="#DejaVuSans-30" transform="translate(127.246094 0)"/>
      </g>
     </g>
    </g>
    <g id="text_15">
     <!-- Residuals ($\frac{m}{s}$) -->
     <g transform="translate(25.46 450.5) rotate(-90) scale(0.22 -0.22)">
      <defs>
       <path id="DejaVuSans-65" d="M 3597 1894 
L 3597 1613 
L 953 1613 
Q 991 1019 1311 708 
Q 1631 397 2203 397 
Q 2534 397 2845 478 
Q 3156 559 3463 722 
L 3463 178 
Q 3153 47 2828 -22 
Q 2503 -91 2169 -91 
Q 1331 -91 842 396 
Q 353 884 353 1716 
Q 353 2575 817 3079 
Q 1281 3584 2069 3584 
Q 2775 3584 3186 3129 
Q 3597 2675 3597 1894 
z
M 3022 2063 
Q 3016 2534 2758 2815 
Q 2500 3097 2075 3097 
Q 1594 3097 1305 2825 
Q 1016 2553 972 2059 
L 3022 2063 
z
" transform="scale(0.015625)"/>
       <path id="DejaVuSans-69" d="M 603 3500 
L 1178 3500 
L 1178 0 
L 603 0 
L 603 3500 
z
M 603 4863 
L 1178 4863 
L 1178 4134 
L 603 4134 
L 603 4863 
z
" transform="scale(0.015625)"/>
       <path id="DejaVuSans-75" d="M 544 1381 
L 544 3500 
L 1119 3500 
L 1119 1403 
Q 1119 906 1312 657 
Q 1506 409 1894 409 
Q 2359 409 2629 706 
Q 2900 1003 2900 1516 
L 2900 3500 
L 3475 3500 
L 3475 0 
L 2900 0 
L 2900 538 
Q 2691 219 2414 64 
Q 2138 -91 1772 -91 
Q 1169 -91 856 284 
Q 544 659 544 1381 
z
M 1991 3584 
L 1991 3584 
z
" transform="scale(0.015625)"/>
       <path id="DejaVuSans-6c" d="M 603 4863 
L 1178 4863 
L 1178 0 
L 603 0 
L 603 4863 
z
" transform="scale(0.015625)"/>
      </defs>
      <use xlink:href="#DejaVuSans-52" transform="translate(0 0.003125)"/>
      <use xlink:href="#DejaVuSans-65" transform="translate(69.482422 0.003125)"/>
      <use xlink:href="#DejaVuSans-73" transform="translate(131.005859 0.003125)"/>
      <use xlink:href="#DejaVuSans-69" transform="translate(183.105469 0.003125)"/>
      <use xlink:href="#DejaVuSans-64" transform="translate(210.888672 0.003125)"/>
      <use xlink:href="#DejaVuSans-75" transform="translate(274.365234 0.003125)"/>
      <use xlink:href="#DejaVuSans-61" transform="translate(337.744141 0.003125)"/>
      <use xlink:href="#DejaVuSans-6c" transform="translate(399.023438 0.003125)"/>
      <use xlink:href="#DejaVuSans-73" transform="translate(426.806641 0.003125)"/>
      <use xlink:href="#DejaVuSans-20" transform="translate(478.90625 0.003125)"/>
      <use xlink:href="#DejaVuSans-28" transform="translate(510.693359 0.003125)"/>
      <use xlink:href="#DejaVuSans-Oblique-6d" transform="translate(549.707031 43.8) scale(0.7)"/>
      <use xlink:href="#DejaVuSans-Oblique-73" transform="translate(565.707031 -26.65) scale(0.7)"/>
      <use xlink:href="#DejaVuSans-29" transform="translate(630.395508 0.003125)"/>
      <path d="M 549.707031 18.8 
L 549.707031 25.05 
L 617.895508 25.05 
L 617.895508 18.8 
L 549.707031 18.8 
z
"/>
     </g>
    </g>
   </g>
   <g id="line2d_23">
    <path d="M 97.554375 370.991051 
L 511.352128 370.991051 
" clip-path="url(#ped939a34d2)" style="fill: none; stroke: #808080; stroke-width: 2; stroke-linecap: square"/>
   </g>
   <g id="LineCollection_4">
    <path d="M 116.363364 367.521314 
L 116.363364 327.034873 
" clip-path="url(#ped939a34d2)" style="fill: none; stroke: #1f77b4; stroke-opacity: 0.4; stroke-width: 1.2"/>
    <path d="M 156.700323 376.206614 
L 156.700323 338.518715 
" clip-path="url(#ped939a34d2)" style="fill: none; stroke: #1f77b4; stroke-opacity: 0.4; stroke-width: 1.2"/>
    <path d="M 160.733308 404.409811 
L 160.733308 354.743113 
" clip-path="url(#ped939a34d2)" style="fill: none; stroke: #1f77b4; stroke-opacity: 0.4; stroke-width: 1.2"/>
    <path d="M 172.835454 361.36343 
L 172.835454 312.763497 
" clip-path="url(#ped939a34d2)" style="fill: none; stroke: #1f77b4; stroke-opacity: 0.4; stroke-width: 1.2"/>
    <path d="M 182.341656 414.612632 
L 182.341656 367.377934 
" clip-path="url(#ped939a34d2)" style="fill: none; stroke: #1f77b4; stroke-opacity: 0.4; stroke-width: 1.2"/>
    <path d="M 187.356768 380.96637 
L 187.356768 342.930546 
" clip-path="url(#ped939a34d2)" style="fill: none; stroke: #1f77b4; stroke-opacity: 0.4; stroke-width: 1.2"/>
    <path d="M 188.898428 406.898457 
L 188.898428 359.162803 
" clip-path="url(#ped939a34d2)" style="fill: none; stroke: #1f77b4; stroke-opacity: 0.4; stroke-width: 1.2"/>
    <path d="M 195.254628 412.662841 
L 195.254628 370.320383 
" clip-path="url(#ped939a34d2)" style="fill: none; stroke: #1f77b4; stroke-opacity: 0.4; stroke-width: 1.2"/>
    <path d="M 204.224156 444 
L 204.224156 390.9031 
" clip-path="url(#ped939a34d2)" style="fill: none; stroke: #1f77b4; stroke-opacity: 0.4; stroke-width: 1.2"/>
    <path d="M 229.164395 395.285826 
L 229.164395 350.721568 
" clip-path="url(#ped939a34d2)" style="fill: none; stroke: #1f77b4; stroke-opacity: 0.4; stroke-width: 1.2"/>
    <path d="M 243.775012 386.733023 
L 243.775012 342.514243 
" clip-path="url(#ped939a34d2)" style="fill: none; stroke: #1f77b4; stroke-opacity: 0.4; stroke-width: 1.2"/>
    <path d="M 415.10113 399.439143 
L 415.10113 358.604848 
" clip-path="url(#ped939a34d2)" style="fill: none; stroke: #1f77b4; stroke-opacity: 0.4; stroke-width: 1.2"/>
    <path d="M 434.544891 419.495115 
L 434.544891 377.140172 
" clip-path="url(#ped939a34d2)" style="fill: none; stroke: #1f77b4; stroke-opacity: 0.4; stroke-width: 1.2"/>
    <path d="M 453.122095 393.797074 
L 453.122095 356.278754 
" clip-path="url(#ped939a34d2)" style="fill: none; stroke: #1f77b4; stroke-opacity: 0.4; stroke-width: 1.2"/>
    <path d="M 463.584743 348.11476 
L 463.584743 309.6 
" clip-path="url(#ped939a34d2)" style="fill: none; stroke: #1f77b4; stroke-opacity: 0.4; stroke-width: 1.2"/>
    <path d="M 468.436484 387.040244 
L 468.436484 336.270853 
" clip-path="url(#ped939a34d2)" style="fill: none; stroke: #1f77b4; stroke-opacity: 0.4; stroke-width: 1.2"/>
    <path d="M 474.853289 356.185828 
L 474.853289 319.142511 
" clip-path="url(#ped939a34d2)" style="fill: none; stroke: #1f77b4; stroke-opacity: 0.4; stroke-width: 1.2"/>
    <path d="M 482.036377 436.958362 
L 482.036377 403.356355 
" clip-path="url(#ped939a34d2)" style="fill: none; stroke: #1f77b4; stroke-opacity: 0.4; stroke-width: 1.2"/>
    <path d="M 486.055927 373.371821 
L 486.055927 329.80271 
" clip-path="url(#ped939a34d2)" style="fill: none; stroke: #1f77b4; stroke-opacity: 0.4; stroke-width: 1.2"/>
    <path d="M 492.543139 404.585246 
L 492.543139 339.321624 
" clip-path="url(#ped939a34d2)" style="fill: none; stroke: #1f77b4; stroke-opacity: 0.4; stroke-width: 1.2"/>
   </g>
   <g id="LineCollection_5">
    <path d="M 116.363364 362.454491 
L 116.363364 332.101696 
" clip-path="url(#ped939a34d2)" style="fill: none; stroke: #1f77b4; stroke-opacity: 0.8; stroke-width: 1.2"/>
    <path d="M 156.700323 370.615193 
L 156.700323 344.110136 
" clip-path="url(#ped939a34d2)" style="fill: none; stroke: #1f77b4; stroke-opacity: 0.8; stroke-width: 1.2"/>
    <path d="M 160.733308 400.486515 
L 160.733308 358.666409 
" clip-path="url(#ped939a34d2)" style="fill: none; stroke: #1f77b4; stroke-opacity: 0.8; stroke-width: 1.2"/>
    <path d="M 172.835454 357.337177 
L 172.835454 316.78975 
" clip-path="url(#ped939a34d2)" style="fill: none; stroke: #1f77b4; stroke-opacity: 0.8; stroke-width: 1.2"/>
    <path d="M 182.341656 410.445585 
L 182.341656 371.544981 
" clip-path="url(#ped939a34d2)" style="fill: none; stroke: #1f77b4; stroke-opacity: 0.8; stroke-width: 1.2"/>
    <path d="M 187.356768 375.447201 
L 187.356768 348.449716 
" clip-path="url(#ped939a34d2)" style="fill: none; stroke: #1f77b4; stroke-opacity: 0.8; stroke-width: 1.2"/>
    <path d="M 188.898428 402.78432 
L 188.898428 363.276941 
" clip-path="url(#ped939a34d2)" style="fill: none; stroke: #1f77b4; stroke-opacity: 0.8; stroke-width: 1.2"/>
    <path d="M 195.254628 407.885392 
L 195.254628 375.097832 
" clip-path="url(#ped939a34d2)" style="fill: none; stroke: #1f77b4; stroke-opacity: 0.8; stroke-width: 1.2"/>
    <path d="M 204.224156 440.37218 
L 204.224156 394.530921 
" clip-path="url(#ped939a34d2)" style="fill: none; stroke: #1f77b4; stroke-opacity: 0.8; stroke-width: 1.2"/>
    <path d="M 229.164395 390.808987 
L 229.164395 355.198407 
" clip-path="url(#ped939a34d2)" style="fill: none; stroke: #1f77b4; stroke-opacity: 0.8; stroke-width: 1.2"/>
    <path d="M 243.775012 382.212271 
L 243.775012 347.034994 
" clip-path="url(#ped939a34d2)" style="fill: none; stroke: #1f77b4; stroke-opacity: 0.8; stroke-width: 1.2"/>
    <path d="M 415.10113 394.429623 
L 415.10113 363.614368 
" clip-path="url(#ped939a34d2)" style="fill: none; stroke: #1f77b4; stroke-opacity: 0.8; stroke-width: 1.2"/>
    <path d="M 434.544891 414.719484 
L 434.544891 381.915803 
" clip-path="url(#ped939a34d2)" style="fill: none; stroke: #1f77b4; stroke-opacity: 0.8; stroke-width: 1.2"/>
    <path d="M 453.122095 388.169599 
L 453.122095 361.906229 
" clip-path="url(#ped939a34d2)" style="fill: none; stroke: #1f77b4; stroke-opacity: 0.8; stroke-width: 1.2"/>
    <path d="M 463.584743 342.69146 
L 463.584743 315.0233 
" clip-path="url(#ped939a34d2)" style="fill: none; stroke: #1f77b4; stroke-opacity: 0.8; stroke-width: 1.2"/>
    <path d="M 468.436484 383.217502 
L 468.436484 340.093595 
" clip-path="url(#ped939a34d2)" style="fill: none; stroke: #1f77b4; stroke-opacity: 0.8; stroke-width: 1.2"/>
    <path d="M 474.853289 350.45428 
L 474.853289 324.874059 
" clip-path="url(#ped939a34d2)" style="fill: none; stroke: #1f77b4; stroke-opacity: 0.8; stroke-width: 1.2"/>
    <path d="M 482.036377 430.296826 
L 482.036377 410.017892 
" clip-path="url(#ped939a34d2)" style="fill: none; stroke: #1f77b4; stroke-opacity: 0.8; stroke-width: 1.2"/>
    <path d="M 486.055927 368.765797 
L 486.055927 334.408734 
" clip-path="url(#ped939a34d2)" style="fill: none; stroke: #1f77b4; stroke-opacity: 0.8; stroke-width: 1.2"/>
    <path d="M 492.543139 401.708605 
L 492.543139 342.198264 
" clip-path="url(#ped939a34d2)" style="fill: none; stroke: #1f77b4; stroke-opacity: 0.8; stroke-width: 1.2"/>
   </g>
   <g id="line2d_24">
    <g clip-path="url(#ped939a34d2)">
     <use xlink:href="#m48aa89a77c" x="116.363364" y="347.278093" style="fill: #1f77b4; fill-opacity: 0.4; stroke: #000000; stroke-opacity: 0.4"/>
     <use xlink:href="#m48aa89a77c" x="156.700323" y="357.362664" style="fill: #1f77b4; fill-opacity: 0.4; stroke: #000000; stroke-opacity: 0.4"/>
     <use xlink:href="#m48aa89a77c" x="160.733308" y="379.576462" style="fill: #1f77b4; fill-opacity: 0.4; stroke: #000000; stroke-opacity: 0.4"/>
     <use xlink:href="#m48aa89a77c" x="172.835454" y="337.063464" style="fill: #1f77b4; fill-opacity: 0.4; stroke: #000000; stroke-opacity: 0.4"/>
     <use xlink:href="#m48aa89a77c" x="182.341656" y="390.995283" style="fill: #1f77b4; fill-opacity: 0.4; stroke: #000000; stroke-opacity: 0.4"/>
     <use xlink:href="#m48aa89a77c" x="187.356768" y="361.948458" style="fill: #1f77b4; fill-opacity: 0.4; stroke: #000000; stroke-opacity: 0.4"/>
     <use xlink:href="#m48aa89a77c" x="188.898428" y="383.03063" style="fill: #1f77b4; fill-opacity: 0.4; stroke: #000000; stroke-opacity: 0.4"/>
     <use xlink:href="#m48aa89a77c" x="195.254628" y="391.491612" style="fill: #1f77b4; fill-opacity: 0.4; stroke: #000000; stroke-opacity: 0.4"/>
     <use xlink:href="#m48aa89a77c" x="204.224156" y="417.45155" style="fill: #1f77b4; fill-opacity: 0.4; stroke: #000000; stroke-opacity: 0.4"/>
     <use xlink:href="#m48aa89a77c" x="229.164395" y="373.003697" style="fill: #1f77b4; fill-opacity: 0.4; stroke: #000000; stroke-opacity: 0.4"/>
     <use xlink:href="#m48aa89a77c" x="243.775012" y="364.623633" style="fill: #1f77b4; fill-opacity: 0.4; stroke: #000000; stroke-opacity: 0.4"/>
     <use xlink:href="#m48aa89a77c" x="415.10113" y="379.021996" style="fill: #1f77b4; fill-opacity: 0.4; stroke: #000000; stroke-opacity: 0.4"/>
     <use xlink:href="#m48aa89a77c" x="434.544891" y="398.317643" style="fill: #1f77b4; fill-opacity: 0.4; stroke: #000000; stroke-opacity: 0.4"/>
     <use xlink:href="#m48aa89a77c" x="453.122095" y="375.037914" style="fill: #1f77b4; fill-opacity: 0.4; stroke: #000000; stroke-opacity: 0.4"/>
     <use xlink:href="#m48aa89a77c" x="463.584743" y="328.85738" style="fill: #1f77b4; fill-opacity: 0.4; stroke: #000000; stroke-opacity: 0.4"/>
     <use xlink:href="#m48aa89a77c" x="468.436484" y="361.655548" style="fill: #1f77b4; fill-opacity: 0.4; stroke: #000000; stroke-opacity: 0.4"/>
     <use xlink:href="#m48aa89a77c" x="474.853289" y="337.66417" style="fill: #1f77b4; fill-opacity: 0.4; stroke: #000000; stroke-opacity: 0.4"/>
     <use xlink:href="#m48aa89a77c" x="482.036377" y="420.157359" style="fill: #1f77b4; fill-opacity: 0.4; stroke: #000000; stroke-opacity: 0.4"/>
     <use xlink:href="#m48aa89a77c" x="486.055927" y="351.587266" style="fill: #1f77b4; fill-opacity: 0.4; stroke: #000000; stroke-opacity: 0.4"/>
     <use xlink:href="#m48aa89a77c" x="492.543139" y="371.953435" style="fill: #1f77b4; fill-opacity: 0.4; stroke: #000000; stroke-opacity: 0.4"/>
    </g>
   </g>
   <g id="line2d_25">
    <g clip-path="url(#ped939a34d2)">
     <use xlink:href="#m7d6a68e8d3" x="116.363364" y="347.278093" style="fill: #1f77b4; fill-opacity: 0.8; stroke: #000000; stroke-opacity: 0.8"/>
     <use xlink:href="#m7d6a68e8d3" x="156.700323" y="357.362664" style="fill: #1f77b4; fill-opacity: 0.8; stroke: #000000; stroke-opacity: 0.8"/>
     <use xlink:href="#m7d6a68e8d3" x="160.733308" y="379.576462" style="fill: #1f77b4; fill-opacity: 0.8; stroke: #000000; stroke-opacity: 0.8"/>
     <use xlink:href="#m7d6a68e8d3" x="172.835454" y="337.063464" style="fill: #1f77b4; fill-opacity: 0.8; stroke: #000000; stroke-opacity: 0.8"/>
     <use xlink:href="#m7d6a68e8d3" x="182.341656" y="390.995283" style="fill: #1f77b4; fill-opacity: 0.8; stroke: #000000; stroke-opacity: 0.8"/>
     <use xlink:href="#m7d6a68e8d3" x="187.356768" y="361.948458" style="fill: #1f77b4; fill-opacity: 0.8; stroke: #000000; stroke-opacity: 0.8"/>
     <use xlink:href="#m7d6a68e8d3" x="188.898428" y="383.03063" style="fill: #1f77b4; fill-opacity: 0.8; stroke: #000000; stroke-opacity: 0.8"/>
     <use xlink:href="#m7d6a68e8d3" x="195.254628" y="391.491612" style="fill: #1f77b4; fill-opacity: 0.8; stroke: #000000; stroke-opacity: 0.8"/>
     <use xlink:href="#m7d6a68e8d3" x="204.224156" y="417.45155" style="fill: #1f77b4; fill-opacity: 0.8; stroke: #000000; stroke-opacity: 0.8"/>
     <use xlink:href="#m7d6a68e8d3" x="229.164395" y="373.003697" style="fill: #1f77b4; fill-opacity: 0.8; stroke: #000000; stroke-opacity: 0.8"/>
     <use xlink:href="#m7d6a68e8d3" x="243.775012" y="364.623633" style="fill: #1f77b4; fill-opacity: 0.8; stroke: #000000; stroke-opacity: 0.8"/>
     <use xlink:href="#m7d6a68e8d3" x="415.10113" y="379.021996" style="fill: #1f77b4; fill-opacity: 0.8; stroke: #000000; stroke-opacity: 0.8"/>
     <use xlink:href="#m7d6a68e8d3" x="434.544891" y="398.317643" style="fill: #1f77b4; fill-opacity: 0.8; stroke: #000000; stroke-opacity: 0.8"/>
     <use xlink:href="#m7d6a68e8d3" x="453.122095" y="375.037914" style="fill: #1f77b4; fill-opacity: 0.8; stroke: #000000; stroke-opacity: 0.8"/>
     <use xlink:href="#m7d6a68e8d3" x="463.584743" y="328.85738" style="fill: #1f77b4; fill-opacity: 0.8; stroke: #000000; stroke-opacity: 0.8"/>
     <use xlink:href="#m7d6a68e8d3" x="468.436484" y="361.655548" style="fill: #1f77b4; fill-opacity: 0.8; stroke: #000000; stroke-opacity: 0.8"/>
     <use xlink:href="#m7d6a68e8d3" x="474.853289" y="337.66417" style="fill: #1f77b4; fill-opacity: 0.8; stroke: #000000; stroke-opacity: 0.8"/>
     <use xlink:href="#m7d6a68e8d3" x="482.036377" y="420.157359" style="fill: #1f77b4; fill-opacity: 0.8; stroke: #000000; stroke-opacity: 0.8"/>
     <use xlink:href="#m7d6a68e8d3" x="486.055927" y="351.587266" style="fill: #1f77b4; fill-opacity: 0.8; stroke: #000000; stroke-opacity: 0.8"/>
     <use xlink:href="#m7d6a68e8d3" x="492.543139" y="371.953435" style="fill: #1f77b4; fill-opacity: 0.8; stroke: #000000; stroke-opacity: 0.8"/>
    </g>
   </g>
   <g id="patch_9">
    <path d="M 97.554375 450.72 
L 97.554375 302.88 
" style="fill: none; stroke: #000000; stroke-width: 3; stroke-linejoin: miter; stroke-linecap: square"/>
   </g>
   <g id="patch_10">
    <path d="M 511.352128 450.72 
L 511.352128 302.88 
" style="fill: none; stroke: #000000; stroke-width: 3; stroke-linejoin: miter; stroke-linecap: square"/>
   </g>
   <g id="patch_11">
    <path d="M 97.554375 450.72 
L 511.352128 450.72 
" style="fill: none; stroke: #000000; stroke-width: 3; stroke-linejoin: miter; stroke-linecap: square"/>
   </g>
   <g id="patch_12">
    <path d="M 97.554375 302.88 
L 511.352128 302.88 
" style="fill: none; stroke: #000000; stroke-width: 3; stroke-linejoin: miter; stroke-linecap: square"/>
   </g>
  </g>
  <g id="axes_3">
   <g id="patch_13">
    <path d="M 530.161117 302.88 
L 655.554375 302.88 
L 655.554375 7.2 
L 530.161117 7.2 
z
" style="fill: #ffffff"/>
   </g>
   <g id="patch_14">
    <path d="M 530.161117 274.329666 
L 589.872192 274.329666 
L 589.872192 244.331898 
L 530.161117 244.331898 
z
" clip-path="url(#pa0c412d4d1)" style="fill: #1f77b4"/>
   </g>
   <g id="patch_15">
    <path d="M 530.161117 244.331898 
L 550.064808 244.331898 
L 550.064808 214.334129 
L 530.161117 214.334129 
z
" clip-path="url(#pa0c412d4d1)" style="fill: #1f77b4"/>
   </g>
   <g id="patch_16">
    <path d="M 530.161117 214.334129 
L 530.161117 214.334129 
L 530.161117 184.336361 
L 530.161117 184.336361 
z
" clip-path="url(#pa0c412d4d1)" style="fill: #1f77b4"/>
   </g>
   <g id="patch_17">
    <path d="M 530.161117 184.336361 
L 530.161117 184.336361 
L 530.161117 154.338593 
L 530.161117 154.338593 
z
" clip-path="url(#pa0c412d4d1)" style="fill: #1f77b4"/>
   </g>
   <g id="patch_18">
    <path d="M 530.161117 154.338593 
L 550.064808 154.338593 
L 550.064808 124.340825 
L 530.161117 124.340825 
z
" clip-path="url(#pa0c412d4d1)" style="fill: #1f77b4"/>
   </g>
   <g id="patch_19">
    <path d="M 530.161117 124.340825 
L 609.775884 124.340825 
L 609.775884 94.343056 
L 530.161117 94.343056 
z
" clip-path="url(#pa0c412d4d1)" style="fill: #1f77b4"/>
   </g>
   <g id="patch_20">
    <path d="M 530.161117 94.343056 
L 649.583267 94.343056 
L 649.583267 64.345288 
L 530.161117 64.345288 
z
" clip-path="url(#pa0c412d4d1)" style="fill: #1f77b4"/>
   </g>
   <g id="patch_21">
    <path d="M 530.161117 64.345288 
L 629.679576 64.345288 
L 629.679576 34.34752 
L 530.161117 34.34752 
z
" clip-path="url(#pa0c412d4d1)" style="fill: #1f77b4"/>
   </g>
   <g id="matplotlib.axis_5">
    <g id="xtick_11">
     <g id="line2d_26">
      <g>
       <use xlink:href="#m91e757233d" x="530.161117" y="302.88" style="stroke: #000000; stroke-width: 0.8"/>
      </g>
     </g>
    </g>
    <g id="xtick_12">
     <g id="line2d_27">
      <g>
       <use xlink:href="#m91e757233d" x="629.679576" y="302.88" style="stroke: #000000; stroke-width: 0.8"/>
      </g>
     </g>
    </g>
   </g>
   <g id="matplotlib.axis_6">
    <g id="ytick_7">
     <g id="line2d_28">
      <g>
       <use xlink:href="#mc528717a41" x="530.161117" y="224.179104" style="stroke: #000000; stroke-width: 0.8"/>
      </g>
     </g>
    </g>
    <g id="ytick_8">
     <g id="line2d_29">
      <g>
       <use xlink:href="#mc528717a41" x="530.161117" y="142.438384" style="stroke: #000000; stroke-width: 0.8"/>
      </g>
     </g>
    </g>
    <g id="ytick_9">
     <g id="line2d_30">
      <g>
       <use xlink:href="#mc528717a41" x="530.161117" y="60.697665" style="stroke: #000000; stroke-width: 0.8"/>
      </g>
     </g>
    </g>
   </g>
   <g id="patch_22">
    <path d="M 530.161117 302.88 
L 530.161117 7.2 
" style="fill: none; stroke: #000000; stroke-width: 3; stroke-linejoin: miter; stroke-linecap: square"/>
   </g>
   <g id="patch_23">
    <path d="M 655.554375 302.88 
L 655.554375 7.2 
" style="fill: none; stroke: #000000; stroke-width: 3; stroke-linejoin: miter; stroke-linecap: square"/>
   </g>
   <g id="patch_24">
    <path d="M 530.161117 302.88 
L 655.554375 302.88 
" style="fill: none; stroke: #000000; stroke-width: 3; stroke-linejoin: miter; stroke-linecap: square"/>
   </g>
   <g id="patch_25">
    <path d="M 530.161117 7.2 
L 655.554375 7.2 
" style="fill: none; stroke: #000000; stroke-width: 3; stroke-linejoin: miter; stroke-linecap: square"/>
   </g>
  </g>
  <g id="axes_4">
   <g id="patch_26">
    <path d="M 530.161117 450.72 
L 655.554375 450.72 
L 655.554375 302.88 
L 530.161117 302.88 
z
" style="fill: #ffffff"/>
   </g>
   <g id="patch_27">
    <path d="M 530.161117 420.157359 
L 589.872192 420.157359 
L 589.872192 408.744861 
L 530.161117 408.744861 
z
" clip-path="url(#pd0b0284656)" style="fill: #1f77b4"/>
   </g>
   <g id="patch_28">
    <path d="M 530.161117 408.744861 
L 560.016654 408.744861 
L 560.016654 397.332364 
L 530.161117 397.332364 
z
" clip-path="url(#pd0b0284656)" style="fill: #1f77b4"/>
   </g>
   <g id="patch_29">
    <path d="M 530.161117 397.332364 
L 589.872192 397.332364 
L 589.872192 385.919867 
L 530.161117 385.919867 
z
" clip-path="url(#pd0b0284656)" style="fill: #1f77b4"/>
   </g>
   <g id="patch_30">
    <path d="M 530.161117 385.919867 
L 649.583267 385.919867 
L 649.583267 374.507369 
L 530.161117 374.507369 
z
" clip-path="url(#pd0b0284656)" style="fill: #1f77b4"/>
   </g>
   <g id="patch_31">
    <path d="M 530.161117 374.507369 
L 619.72773 374.507369 
L 619.72773 363.094872 
L 530.161117 363.094872 
z
" clip-path="url(#pd0b0284656)" style="fill: #1f77b4"/>
   </g>
   <g id="patch_32">
    <path d="M 530.161117 363.094872 
L 619.72773 363.094872 
L 619.72773 351.682375 
L 530.161117 351.682375 
z
" clip-path="url(#pd0b0284656)" style="fill: #1f77b4"/>
   </g>
   <g id="patch_33">
    <path d="M 530.161117 351.682375 
L 589.872192 351.682375 
L 589.872192 340.269877 
L 530.161117 340.269877 
z
" clip-path="url(#pd0b0284656)" style="fill: #1f77b4"/>
   </g>
   <g id="patch_34">
    <path d="M 530.161117 340.269877 
L 619.72773 340.269877 
L 619.72773 328.85738 
L 530.161117 328.85738 
z
" clip-path="url(#pd0b0284656)" style="fill: #1f77b4"/>
   </g>
   <g id="matplotlib.axis_7">
    <g id="xtick_13">
     <g id="line2d_31">
      <g>
       <use xlink:href="#m91e757233d" x="530.161117" y="450.72" style="stroke: #000000; stroke-width: 0.8"/>
      </g>
     </g>
     <g id="text_16">
      <!-- 0.0 -->
      <g transform="translate(514.257992 472.916875) scale(0.2 -0.2)">
       <defs>
        <path id="DejaVuSans-2e" d="M 684 794 
L 1344 794 
L 1344 0 
L 684 0 
L 684 794 
z
" transform="scale(0.015625)"/>
       </defs>
       <use xlink:href="#DejaVuSans-30"/>
       <use xlink:href="#DejaVuSans-2e" transform="translate(63.623047 0)"/>
       <use xlink:href="#DejaVuSans-30" transform="translate(95.410156 0)"/>
      </g>
     </g>
    </g>
    <g id="xtick_14">
     <g id="line2d_32">
      <g>
       <use xlink:href="#m91e757233d" x="604.799961" y="450.72" style="stroke: #000000; stroke-width: 0.8"/>
      </g>
     </g>
     <g id="text_17">
      <!-- 2.5 -->
      <g transform="translate(588.896836 472.916875) scale(0.2 -0.2)">
       <defs>
        <path id="DejaVuSans-35" d="M 691 4666 
L 3169 4666 
L 3169 4134 
L 1269 4134 
L 1269 2991 
Q 1406 3038 1543 3061 
Q 1681 3084 1819 3084 
Q 2600 3084 3056 2656 
Q 3513 2228 3513 1497 
Q 3513 744 3044 326 
Q 2575 -91 1722 -91 
Q 1428 -91 1123 -41 
Q 819 9 494 109 
L 494 744 
Q 775 591 1075 516 
Q 1375 441 1709 441 
Q 2250 441 2565 725 
Q 2881 1009 2881 1497 
Q 2881 1984 2565 2268 
Q 2250 2553 1709 2553 
Q 1456 2553 1204 2497 
Q 953 2441 691 2322 
L 691 4666 
z
" transform="scale(0.015625)"/>
       </defs>
       <use xlink:href="#DejaVuSans-32"/>
       <use xlink:href="#DejaVuSans-2e" transform="translate(63.623047 0)"/>
       <use xlink:href="#DejaVuSans-35" transform="translate(95.410156 0)"/>
      </g>
     </g>
    </g>
    <g id="text_18">
     <!-- Counts -->
     <g transform="translate(554.460871 497.792812) scale(0.22 -0.22)">
      <defs>
       <path id="DejaVuSans-6f" d="M 1959 3097 
Q 1497 3097 1228 2736 
Q 959 2375 959 1747 
Q 959 1119 1226 758 
Q 1494 397 1959 397 
Q 2419 397 2687 759 
Q 2956 1122 2956 1747 
Q 2956 2369 2687 2733 
Q 2419 3097 1959 3097 
z
M 1959 3584 
Q 2709 3584 3137 3096 
Q 3566 2609 3566 1747 
Q 3566 888 3137 398 
Q 2709 -91 1959 -91 
Q 1206 -91 779 398 
Q 353 888 353 1747 
Q 353 2609 779 3096 
Q 1206 3584 1959 3584 
z
" transform="scale(0.015625)"/>
       <path id="DejaVuSans-6e" d="M 3513 2113 
L 3513 0 
L 2938 0 
L 2938 2094 
Q 2938 2591 2744 2837 
Q 2550 3084 2163 3084 
Q 1697 3084 1428 2787 
Q 1159 2491 1159 1978 
L 1159 0 
L 581 0 
L 581 3500 
L 1159 3500 
L 1159 2956 
Q 1366 3272 1645 3428 
Q 1925 3584 2291 3584 
Q 2894 3584 3203 3211 
Q 3513 2838 3513 2113 
z
" transform="scale(0.015625)"/>
       <path id="DejaVuSans-74" d="M 1172 4494 
L 1172 3500 
L 2356 3500 
L 2356 3053 
L 1172 3053 
L 1172 1153 
Q 1172 725 1289 603 
Q 1406 481 1766 481 
L 2356 481 
L 2356 0 
L 1766 0 
Q 1100 0 847 248 
Q 594 497 594 1153 
L 594 3053 
L 172 3053 
L 172 3500 
L 594 3500 
L 594 4494 
L 1172 4494 
z
" transform="scale(0.015625)"/>
      </defs>
      <use xlink:href="#DejaVuSans-43"/>
      <use xlink:href="#DejaVuSans-6f" transform="translate(69.824219 0)"/>
      <use xlink:href="#DejaVuSans-75" transform="translate(131.005859 0)"/>
      <use xlink:href="#DejaVuSans-6e" transform="translate(194.384766 0)"/>
      <use xlink:href="#DejaVuSans-74" transform="translate(257.763672 0)"/>
      <use xlink:href="#DejaVuSans-73" transform="translate(296.972656 0)"/>
     </g>
    </g>
   </g>
   <g id="matplotlib.axis_8">
    <g id="ytick_10">
     <g id="line2d_33">
      <g>
       <use xlink:href="#mc528717a41" x="530.161117" y="426.215253" style="stroke: #000000; stroke-width: 0.8"/>
      </g>
     </g>
    </g>
    <g id="ytick_11">
     <g id="line2d_34">
      <g>
       <use xlink:href="#mc528717a41" x="530.161117" y="370.991051" style="stroke: #000000; stroke-width: 0.8"/>
      </g>
     </g>
    </g>
    <g id="ytick_12">
     <g id="line2d_35">
      <g>
       <use xlink:href="#mc528717a41" x="530.161117" y="315.766849" style="stroke: #000000; stroke-width: 0.8"/>
      </g>
     </g>
    </g>
   </g>
   <g id="patch_35">
    <path d="M 530.161117 450.72 
L 530.161117 302.88 
" style="fill: none; stroke: #000000; stroke-width: 3; stroke-linejoin: miter; stroke-linecap: square"/>
   </g>
   <g id="patch_36">
    <path d="M 655.554375 450.72 
L 655.554375 302.88 
" style="fill: none; stroke: #000000; stroke-width: 3; stroke-linejoin: miter; stroke-linecap: square"/>
   </g>
   <g id="patch_37">
    <path d="M 530.161117 450.72 
L 655.554375 450.72 
" style="fill: none; stroke: #000000; stroke-width: 3; stroke-linejoin: miter; stroke-linecap: square"/>
   </g>
   <g id="patch_38">
    <path d="M 530.161117 302.88 
L 655.554375 302.88 
" style="fill: none; stroke: #000000; stroke-width: 3; stroke-linejoin: miter; stroke-linecap: square"/>
   </g>
  </g>
 </g>
 <defs>
  <clipPath id="pd028549eac">
   <rect x="97.554375" y="7.2" width="413.797753" height="295.68"/>
  </clipPath>
  <clipPath id="ped939a34d2">
   <rect x="97.554375" y="302.88" width="413.797753" height="147.84"/>
  </clipPath>
  <clipPath id="pa0c412d4d1">
   <rect x="530.161117" y="7.2" width="125.393258" height="295.68"/>
  </clipPath>
  <clipPath id="pd0b0284656">
   <rect x="530.161117" y="302.88" width="125.393258" height="147.84"/>
  </clipPath>
 </defs>
</svg>
